<svg version="1.1" id="Layer_1" xmlns="http://www.w3.org/2000/svg" xmlns:xlink="http://www.w3.org/1999/xlink" x="0px" y="0px"
	 width="100%" viewBox="0 0 735 375" enable-background="new 0 0 735 375" xml:space="preserve">
<path fill="#FEFEFE" opacity="1.000000" stroke="none" 
	d="
M448.000000,376.000000 
	C298.700195,376.000000 149.900360,376.000000 1.050273,376.000000 
	C1.050273,251.061676 1.050273,126.123337 1.050273,1.092495 
	C245.883133,1.092495 490.766296,1.092495 735.824707,1.092495 
	C735.824707,125.999809 735.824707,250.999878 735.824707,376.000000 
	C640.123352,376.000000 544.311707,376.000000 448.000000,376.000000 
M665.274902,183.563568 
	C666.184082,183.377747 667.093262,183.191925 668.502441,183.003357 
	C668.669189,183.002853 668.835876,183.002335 669.818115,183.002823 
	C671.981445,183.029831 674.354309,183.338379 673.990845,179.187378 
	C672.305115,176.956848 670.632446,174.716324 668.930603,172.498138 
	C666.255310,169.011063 663.560364,165.538986 661.518005,161.742279 
	C665.705872,156.211823 658.366699,156.749878 657.141846,153.180435 
	C658.506287,152.475082 659.946899,151.639709 661.460938,150.970291 
	C663.419861,150.104187 665.761963,149.768417 667.344971,148.476395 
	C669.207520,146.956284 669.725525,144.931641 666.043518,144.328171 
	C665.995667,143.891739 665.947815,143.455322 666.288208,143.135361 
	C666.288208,143.135361 666.667480,142.992508 667.297363,142.967682 
	C668.320618,141.346954 669.343872,139.726212 670.859741,137.325272 
	C667.492432,137.672516 665.712952,137.856018 663.331970,137.710175 
	C660.150208,132.175385 656.968445,126.640602 654.487488,120.765640 
	C655.321533,118.163139 656.155518,115.560638 657.691650,112.863190 
	C659.348145,111.990883 661.004578,111.118576 663.162781,109.982063 
	C661.651733,107.889549 660.283325,105.994583 659.230042,103.434456 
	C658.954590,101.625595 659.023010,99.671288 658.332336,98.038010 
	C656.872559,94.585983 655.016113,91.301720 652.973083,87.257019 
	C652.914062,87.284576 651.872375,87.770889 650.312561,87.707619 
	C649.507629,84.484604 648.702759,81.261581 648.447205,77.648956 
	C647.932251,76.774277 647.417236,75.899597 646.562744,74.543007 
	C645.705200,74.045830 644.847717,73.548660 643.881592,72.320709 
	C637.327820,69.753670 630.617676,69.508080 623.803406,71.014267 
	C623.639404,71.050522 623.584351,71.580032 623.960388,70.516243 
	C625.258179,72.438309 626.189819,73.818153 626.589111,75.693153 
	C619.835571,76.658043 615.467773,81.202057 611.603577,86.165276 
	C609.163757,89.298950 606.150024,92.789116 605.625366,96.440086 
	C604.592712,103.625755 605.096619,103.282852 598.351807,105.152252 
	C593.768860,106.422447 589.445740,108.916801 585.275452,111.328804 
	C576.946106,116.146255 576.425293,125.563553 573.260315,133.295090 
	C572.167664,135.964417 571.086426,136.521698 568.613708,137.218079 
	C564.398560,138.405106 559.838928,139.758301 556.498962,142.400482 
	C546.861206,150.024597 543.405029,161.005524 542.184265,172.767075 
	C542.046570,174.093491 543.470154,175.581940 544.245667,177.427475 
	C544.245667,177.427475 544.187805,177.862518 544.067017,178.364380 
	C544.307922,178.575211 544.548828,178.786026 544.944153,178.978302 
	C544.944153,178.978302 544.998169,179.124176 545.094421,179.866409 
	C547.364380,180.551529 549.626892,181.799271 551.905579,181.829590 
	C565.716797,182.013351 579.531677,181.919296 593.345337,181.918106 
	C595.105164,181.917969 596.864990,181.918106 598.732544,181.918106 
	C598.732544,183.329605 598.882812,184.015030 598.708984,184.604935 
	C597.196594,189.736893 595.445496,194.805450 594.117920,199.983246 
	C592.421265,206.600937 591.138977,213.323959 589.510193,219.960373 
	C588.497192,224.088043 587.101501,228.120239 586.003296,232.228897 
	C583.298523,242.348740 580.737732,252.507523 577.978333,262.612213 
	C576.276978,268.842865 574.059204,274.944000 572.621948,281.228729 
	C572.156860,283.262390 573.434998,285.694702 574.045105,287.996826 
	C574.045105,287.996826 574.023987,288.134705 573.953186,288.702850 
	C574.304565,289.128235 574.655945,289.553619 575.129761,290.726166 
	C579.474731,294.291534 583.747742,294.011200 586.502747,289.669098 
	C586.662292,289.118103 586.821838,288.567139 586.989807,287.993347 
	C586.989807,287.993347 587.005981,287.975189 587.753479,287.942657 
	C588.822388,286.491699 590.395996,285.181091 590.847229,283.558380 
	C591.611328,280.810181 591.666565,277.864899 592.739563,274.920532 
	C594.098877,274.019318 595.476501,273.144257 596.811707,272.208588 
	C597.874023,271.464111 598.884521,270.645630 599.918091,269.860046 
	C598.708008,269.199646 597.497925,268.539246 596.451965,267.968414 
	C596.308960,265.984406 596.165649,263.995605 596.014526,261.506378 
	C596.024963,261.339874 596.035339,261.173370 596.801331,261.025238 
	C597.944336,262.491852 599.087341,263.958466 600.684082,266.007263 
	C602.182190,261.778473 603.721863,257.888306 604.850647,253.882324 
	C605.091919,253.026047 603.929932,251.690613 603.254578,250.683090 
	C602.560547,249.647751 601.670776,248.743591 600.848755,246.985718 
	C600.916565,245.659943 600.984436,244.334167 601.762756,242.874023 
	C603.180786,240.759506 607.818787,241.663773 606.956116,237.471130 
	C606.436279,234.944778 605.632141,232.476929 604.980225,229.324615 
	C605.005432,228.886261 605.030640,228.447906 605.811707,227.912201 
	C606.855835,226.995316 608.399109,226.274780 608.851440,225.125046 
	C610.263367,221.536469 611.304626,217.798035 612.405151,214.092621 
	C612.994446,212.108475 614.245483,209.821121 610.918823,208.194336 
	C611.271057,206.460999 611.623291,204.727661 612.729065,202.996796 
	C613.595154,202.143585 614.571228,201.374634 615.303284,200.418793 
	C616.637207,198.677109 617.725525,196.741348 619.118469,195.053360 
	C619.815002,194.209290 620.957336,193.733139 621.898071,193.090576 
	C621.060425,192.262299 620.318909,191.291534 619.359253,190.644043 
	C618.308899,189.935364 617.057068,189.525360 615.946411,188.286804 
	C616.296448,187.190598 616.646545,186.094376 617.759155,185.011368 
	C624.933289,187.576523 625.554871,187.315384 627.869995,181.058029 
	C629.573303,181.080994 631.276550,181.103958 633.027710,181.932709 
	C633.181702,182.392761 633.320251,183.248611 633.492004,183.255325 
	C638.653931,183.457077 643.819336,183.625580 648.983032,183.594391 
	C649.333984,183.592270 649.675293,181.990646 650.845581,181.067108 
	C652.222473,181.093262 653.599426,181.119415 655.000244,181.865906 
	C655.884094,185.215118 657.275879,187.282089 661.026001,184.655579 
	C662.174927,183.850876 663.667297,183.536514 665.000000,183.000000 
	C665.000000,183.000000 665.001892,182.997421 665.274902,183.563568 
M347.199371,197.684021 
	C345.371307,199.676514 343.543243,201.668991 341.020233,204.418915 
	C341.020233,199.067230 341.020233,194.814392 341.020233,190.298203 
	C335.930420,190.298203 331.193878,190.298203 326.203400,190.298203 
	C326.203400,223.013000 326.203400,255.581497 326.203400,288.350403 
	C331.523865,288.350403 336.616394,288.350403 342.143951,288.350403 
	C342.143951,286.507599 342.143677,284.877441 342.143951,283.247284 
	C342.147156,265.247864 342.182373,247.248367 342.139435,229.249054 
	C342.119995,221.109863 345.107025,214.211273 351.044830,208.842407 
	C358.581024,202.028320 367.551453,200.007629 377.045990,203.731995 
	C386.034058,207.257751 386.899597,215.569824 386.948517,223.782791 
	C387.060669,242.614822 386.985748,261.447968 386.986786,280.280670 
	C386.986938,282.904114 386.986847,285.527557 386.986847,288.354614 
	C392.524170,288.354614 397.619080,288.354614 403.190796,288.354614 
	C403.190796,286.528931 403.189880,284.912628 403.190979,283.296326 
	C403.203491,265.130249 403.183441,246.964066 403.263458,228.798294 
	C403.275848,225.982681 403.489532,223.116898 404.049347,220.363602 
	C406.483154,208.393295 417.911316,201.003815 431.869873,202.213943 
	C442.841736,203.165161 447.739319,209.535553 448.043182,223.267258 
	C448.076355,224.766541 448.063202,226.266953 448.062744,227.766846 
	C448.057037,246.266190 448.049683,264.765533 448.042877,283.264862 
	C448.042267,284.875488 448.042786,286.486145 448.042786,288.316956 
	C453.667755,288.316956 458.757629,288.316956 464.008057,288.316956 
	C464.008057,262.429596 464.271667,236.788986 463.861420,211.159180 
	C463.722626,202.487885 459.148956,195.274704 451.011566,191.781876 
	C436.279938,185.458588 421.779541,185.819778 408.474579,195.816803 
	C405.597290,197.978729 403.184753,200.759201 400.579529,203.234467 
	C394.556183,193.732056 390.919952,190.510468 382.292023,188.773941 
	C369.550751,186.209564 357.770416,188.367050 347.199371,197.684021 
M307.149719,208.423553 
	C303.778564,203.816238 301.234436,198.125214 296.882050,194.803635 
	C283.509460,184.598190 254.376251,185.758179 241.074310,196.166763 
	C227.344696,206.910004 228.499268,228.249725 243.815002,236.439667 
	C250.449402,239.987335 258.115845,241.673813 265.403961,243.910858 
	C272.700348,246.150436 280.286926,247.544800 287.418182,250.193176 
	C294.179962,252.704330 296.436462,256.982025 296.010468,263.247528 
	C295.647217,268.589966 292.039612,273.179535 285.631104,274.545380 
	C279.999512,275.745667 274.072388,276.331055 268.326599,276.070099 
	C254.527283,275.443420 248.857803,270.588257 245.378021,257.552612 
	C240.312271,257.552612 235.210983,257.552612 230.125854,257.552612 
	C229.261063,270.668030 236.727539,282.246979 249.728378,287.020752 
	C265.211182,292.705780 280.837921,292.319397 296.073700,286.029663 
	C307.947327,281.127960 313.738342,271.354706 313.278748,258.349823 
	C312.886871,247.259995 306.861542,239.656723 294.320953,235.469467 
	C287.553192,233.209702 280.455322,231.958939 273.586243,229.976257 
	C267.211670,228.136307 260.566193,226.670654 254.720612,223.700638 
	C246.861969,219.707855 246.961166,209.983856 254.264389,205.478699 
	C268.454712,196.725021 287.554901,203.084656 293.258453,218.562408 
	C298.319519,218.562408 303.421326,218.562408 309.279510,218.562408 
	C308.597717,215.212387 307.984497,212.199295 307.149719,208.423553 
M484.063599,214.616531 
	C478.972534,227.394653 478.353241,240.562836 481.147980,253.869873 
	C485.094330,272.660095 498.262146,286.069427 515.133911,288.954742 
	C536.868896,292.671783 554.345764,285.919952 564.218445,269.452454 
	C572.205627,256.129944 573.282532,241.516983 570.916626,226.482605 
	C567.624878,205.565430 553.345337,191.127167 533.094360,188.184265 
	C511.380188,185.028732 493.654938,194.386200 484.063599,214.616531 
M207.819061,199.676926 
	C183.967239,178.311417 145.587097,186.138168 134.335754,214.876221 
	C128.217361,230.503754 128.039017,246.523392 134.108200,262.198883 
	C140.275436,278.127655 152.083740,287.458130 169.222198,289.458099 
	C185.975540,291.413086 200.778519,287.491974 211.660309,273.767273 
	C226.822830,254.643463 226.026337,217.627823 207.819061,199.676926 
M642.382263,211.937714 
	C646.663513,206.929672 647.605896,201.489044 644.985535,196.908112 
	C642.212524,192.060303 637.652954,190.238419 631.223511,191.016571 
	C626.481812,191.590469 623.305969,194.854828 622.515503,198.593704 
	C621.688110,202.506989 622.262573,207.507446 624.139893,211.004242 
	C626.558838,215.510025 636.071411,215.683899 642.382263,211.937714 
z"/>
<path fill="#060705" opacity="1.000000" stroke="none" 
	d="
M347.453705,197.437210 
	C357.770416,188.367050 369.550751,186.209564 382.292023,188.773941 
	C390.919952,190.510468 394.556183,193.732056 400.579529,203.234467 
	C403.184753,200.759201 405.597290,197.978729 408.474579,195.816803 
	C421.779541,185.819778 436.279938,185.458588 451.011566,191.781876 
	C459.148956,195.274704 463.722626,202.487885 463.861420,211.159180 
	C464.271667,236.788986 464.008057,262.429596 464.008057,288.316956 
	C458.757629,288.316956 453.667755,288.316956 448.042786,288.316956 
	C448.042786,286.486145 448.042267,284.875488 448.042877,283.264862 
	C448.049683,264.765533 448.057037,246.266190 448.062744,227.766846 
	C448.063202,226.266953 448.076355,224.766541 448.043182,223.267258 
	C447.739319,209.535553 442.841736,203.165161 431.869873,202.213943 
	C417.911316,201.003815 406.483154,208.393295 404.049347,220.363602 
	C403.489532,223.116898 403.275848,225.982681 403.263458,228.798294 
	C403.183441,246.964066 403.203491,265.130249 403.190979,283.296326 
	C403.189880,284.912628 403.190796,286.528931 403.190796,288.354614 
	C397.619080,288.354614 392.524170,288.354614 386.986847,288.354614 
	C386.986847,285.527557 386.986938,282.904114 386.986786,280.280670 
	C386.985748,261.447968 387.060669,242.614822 386.948517,223.782791 
	C386.899597,215.569824 386.034058,207.257751 377.045990,203.731995 
	C367.551453,200.007629 358.581024,202.028320 351.044830,208.842407 
	C345.107025,214.211273 342.119995,221.109863 342.139435,229.249054 
	C342.182373,247.248367 342.147156,265.247864 342.143951,283.247284 
	C342.143677,284.877441 342.143951,286.507599 342.143951,288.350403 
	C336.616394,288.350403 331.523865,288.350403 326.203400,288.350403 
	C326.203400,255.581497 326.203400,223.013000 326.203400,190.298203 
	C331.193878,190.298203 335.930420,190.298203 341.020233,190.298203 
	C341.020233,194.814392 341.020233,199.067230 341.020233,204.418915 
	C343.543243,201.668991 345.371307,199.676514 347.453705,197.437210 
z"/>
<path fill="#090A09" opacity="1.000000" stroke="none" 
	d="
M307.260498,208.804871 
	C307.984497,212.199295 308.597717,215.212387 309.279510,218.562408 
	C303.421326,218.562408 298.319519,218.562408 293.258453,218.562408 
	C287.554901,203.084656 268.454712,196.725021 254.264389,205.478699 
	C246.961166,209.983856 246.861969,219.707855 254.720612,223.700638 
	C260.566193,226.670654 267.211670,228.136307 273.586243,229.976257 
	C280.455322,231.958939 287.553192,233.209702 294.320953,235.469467 
	C306.861542,239.656723 312.886871,247.259995 313.278748,258.349823 
	C313.738342,271.354706 307.947327,281.127960 296.073700,286.029663 
	C280.837921,292.319397 265.211182,292.705780 249.728378,287.020752 
	C236.727539,282.246979 229.261063,270.668030 230.125854,257.552612 
	C235.210983,257.552612 240.312271,257.552612 245.378021,257.552612 
	C248.857803,270.588257 254.527283,275.443420 268.326599,276.070099 
	C274.072388,276.331055 279.999512,275.745667 285.631104,274.545380 
	C292.039612,273.179535 295.647217,268.589966 296.010468,263.247528 
	C296.436462,256.982025 294.179962,252.704330 287.418182,250.193176 
	C280.286926,247.544800 272.700348,246.150436 265.403961,243.910858 
	C258.115845,241.673813 250.449402,239.987335 243.815002,236.439667 
	C228.499268,228.249725 227.344696,206.910004 241.074310,196.166763 
	C254.376251,185.758179 283.509460,184.598190 296.882050,194.803635 
	C301.234436,198.125214 303.778564,203.816238 307.260498,208.804871 
z"/>
<path fill="#080907" opacity="1.000000" stroke="none" 
	d="
M484.211823,214.264252 
	C493.654938,194.386200 511.380188,185.028732 533.094360,188.184265 
	C553.345337,191.127167 567.624878,205.565430 570.916626,226.482605 
	C573.282532,241.516983 572.205627,256.129944 564.218445,269.452454 
	C554.345764,285.919952 536.868896,292.671783 515.133911,288.954742 
	C498.262146,286.069427 485.094330,272.660095 481.147980,253.869873 
	C478.353241,240.562836 478.972534,227.394653 484.211823,214.264252 
M504.107544,265.312103 
	C517.995239,280.678467 540.279480,279.094177 549.871643,261.319550 
	C557.978333,246.297531 557.927307,230.394485 549.279175,215.506317 
	C538.800537,197.466858 513.557800,197.443848 502.314728,214.993546 
	C493.439758,228.846756 494.071991,251.152756 504.107544,265.312103 
z"/>
<path fill="#080907" opacity="1.000000" stroke="none" 
	d="
M208.082153,199.917145 
	C226.026337,217.627823 226.822830,254.643463 211.660309,273.767273 
	C200.778519,287.491974 185.975540,291.413086 169.222198,289.458099 
	C152.083740,287.458130 140.275436,278.127655 134.108200,262.198883 
	C128.039017,246.523392 128.217361,230.503754 134.335754,214.876221 
	C145.587097,186.138168 183.967239,178.311417 208.082153,199.917145 
M150.089981,219.804382 
	C145.126373,233.185486 144.831360,246.567215 150.990570,259.586639 
	C155.796738,269.746033 164.043915,275.390320 175.488098,275.623413 
	C187.136978,275.860687 195.663895,270.449890 200.913055,260.254089 
	C206.837158,248.747330 207.235901,236.568558 203.687439,224.302444 
	C199.947342,211.373871 190.610870,203.238327 178.869034,202.148621 
	C166.536621,201.004120 156.927429,206.725281 150.089981,219.804382 
z"/>
<path fill="#19D43D" opacity="1.000000" stroke="none" 
	d="
M544.187805,177.862518 
	C544.187805,177.862518 544.245667,177.427475 544.449097,176.901657 
	C544.760742,174.884567 544.821106,173.388016 544.984741,171.902847 
	C546.504272,158.112610 550.901184,145.572388 565.352905,141.055283 
	C572.751648,138.742676 576.573975,135.318909 577.479187,128.027618 
	C577.518982,127.707321 577.712830,127.407677 577.823853,127.094490 
	C581.955933,115.442253 589.503174,107.853699 602.367371,106.938057 
	C605.984924,106.680573 606.877319,104.674934 607.584229,101.616806 
	C611.500061,84.678032 623.198669,75.632874 640.499634,75.732399 
	C643.341797,75.748749 644.445862,76.745811 645.224915,79.517860 
	C646.746094,84.930855 648.525635,90.340340 650.896057,95.426003 
	C653.209778,100.389946 656.394165,104.948082 659.476257,110.157509 
	C656.708069,110.157509 654.226746,110.185455 651.746338,110.149788 
	C649.173462,110.112793 648.149902,111.187820 648.598877,113.843475 
	C650.621155,125.805527 656.334778,135.546036 665.900024,143.018890 
	C665.947815,143.455322 665.995667,143.891739 665.698730,144.595367 
	C664.897766,144.907852 664.441467,144.953156 663.536560,144.881165 
	C659.641541,144.763855 656.195190,144.763855 652.146851,144.763855 
	C653.114197,159.585220 659.915039,170.219315 672.240234,178.997177 
	C654.678650,178.997177 638.695618,179.234894 622.726929,178.861618 
	C617.499207,178.739426 615.494324,180.616348 614.269104,185.428360 
	C609.554688,203.944550 604.467468,222.365677 599.540405,240.827881 
	C595.347290,256.539642 591.183044,272.259125 587.005981,287.975189 
	C587.005981,287.975189 586.989807,287.993347 586.524902,288.040222 
	C582.047974,288.102997 578.035950,288.118866 574.023987,288.134705 
	C574.023987,288.134705 574.045105,287.996826 574.080078,287.597656 
	C583.696533,251.419632 593.278076,215.640732 602.896362,179.724533 
	C601.718933,179.412643 601.095337,179.103500 600.471436,179.103104 
	C581.980347,179.091324 563.489258,179.110184 544.998169,179.124176 
	C544.998169,179.124176 544.944153,178.978302 544.871033,178.753143 
	C544.723633,178.187912 544.520264,177.966095 544.187805,177.862518 
M605.623352,184.942871 
	C612.407104,187.348557 610.343140,181.376831 611.872803,177.440521 
	C617.071716,176.982544 622.579163,176.263199 628.105042,176.069595 
	C635.089111,175.824890 642.114685,176.357361 649.067261,175.828918 
	C651.704529,175.628433 654.378784,173.644501 656.554077,171.879349 
	C656.914490,171.586945 654.820557,168.215088 653.806396,166.295059 
	C651.674438,162.258957 647.279358,158.977463 649.863464,153.405502 
	C650.375427,152.301544 650.187683,150.740005 649.962463,149.452469 
	C649.319641,145.776932 648.754822,142.293549 653.293640,140.481964 
	C653.800354,140.279709 654.144897,138.578445 653.896545,137.780212 
	C653.127747,135.309448 652.389282,132.709839 651.002258,130.573730 
	C647.177490,124.683411 645.710144,118.127708 645.133850,111.336700 
	C644.964905,109.346382 645.214722,106.801460 648.791687,107.660225 
	C649.606628,107.855888 651.864624,105.899429 651.738708,105.545731 
	C650.724121,102.695885 649.964294,98.497925 647.857544,97.558777 
	C643.608765,95.664772 644.309998,92.740623 643.895569,89.502434 
	C643.486389,86.305252 642.245972,83.214462 641.421997,80.262566 
	C628.479004,79.324020 618.155151,84.865425 618.568787,91.958420 
	C617.033691,93.002075 614.914490,93.658051 614.309814,94.997658 
	C612.311584,99.424583 610.751160,104.062775 609.240051,108.690834 
	C608.343628,111.436089 607.396973,111.507347 604.318420,111.240417 
	C600.166321,110.880394 595.523743,112.569580 591.607361,114.452293 
	C589.259644,115.580925 587.895447,118.755714 585.573792,121.654312 
	C585.716736,122.179077 586.164185,123.821503 586.714539,125.841858 
	C584.959106,125.693253 583.719421,125.588310 583.950256,125.607849 
	C581.171570,131.234756 578.984924,136.292236 576.171143,140.972702 
	C575.339233,142.356537 572.808960,142.970215 570.932922,143.423798 
	C566.888245,144.401718 562.245056,143.986404 560.340881,149.062485 
	C560.048828,149.841141 558.950256,150.306915 558.249634,150.944794 
	C556.774597,152.287643 554.989624,153.430908 553.913635,155.044067 
	C550.976074,159.447937 549.149780,164.155472 549.458801,169.744110 
	C549.671875,173.596786 551.164429,175.991135 555.044739,175.999344 
	C560.792908,176.011490 566.541077,176.004639 572.289246,176.006836 
	C581.113281,176.010223 589.939697,175.888062 598.760498,176.058197 
	C605.837708,176.194687 607.786316,178.821320 605.623352,184.942871 
z"/>
<path fill="#BFFBCE" opacity="1.000000" stroke="none" 
	d="
M666.094116,143.077118 
	C656.334778,135.546036 650.621155,125.805527 648.598877,113.843475 
	C648.149902,111.187820 649.173462,110.112793 651.746338,110.149788 
	C654.226746,110.185455 656.708069,110.157509 659.476257,110.157509 
	C656.394165,104.948082 653.209778,100.389946 650.896057,95.426003 
	C648.525635,90.340340 646.746094,84.930855 645.224915,79.517860 
	C644.445862,76.745811 643.341797,75.748749 640.499634,75.732399 
	C623.198669,75.632874 611.500061,84.678032 607.584229,101.616806 
	C606.877319,104.674934 605.984924,106.680573 602.367371,106.938057 
	C589.503174,107.853699 581.955933,115.442253 577.823853,127.094490 
	C577.712830,127.407677 577.518982,127.707321 577.479187,128.027618 
	C576.573975,135.318909 572.751648,138.742676 565.352905,141.055283 
	C550.901184,145.572388 546.504272,158.112610 544.984741,171.902847 
	C544.821106,173.388016 544.760742,174.884567 544.411072,176.685547 
	C543.470154,175.581940 542.046570,174.093491 542.184265,172.767075 
	C543.405029,161.005524 546.861206,150.024597 556.498962,142.400482 
	C559.838928,139.758301 564.398560,138.405106 568.613708,137.218079 
	C571.086426,136.521698 572.167664,135.964417 573.260315,133.295090 
	C576.425293,125.563553 576.946106,116.146255 585.275452,111.328804 
	C589.445740,108.916801 593.768860,106.422447 598.351807,105.152252 
	C605.096619,103.282852 604.592712,103.625755 605.625366,96.440086 
	C606.150024,92.789116 609.163757,89.298950 611.603577,86.165276 
	C615.467773,81.202057 619.835571,76.658043 627.262329,75.404449 
	C633.287048,74.427658 638.638611,73.739571 643.990173,73.051483 
	C644.847717,73.548660 645.705200,74.045830 646.734985,75.119255 
	C647.237488,76.476524 647.567627,77.257545 647.897827,78.038559 
	C648.702759,81.261581 649.507629,84.484604 650.603577,88.339493 
	C653.567993,94.014122 656.241394,99.056885 658.914856,104.099625 
	C660.283325,105.994583 661.651733,107.889549 663.162781,109.982063 
	C661.004578,111.118576 659.348145,111.990883 656.910461,112.899704 
	C654.764343,113.497147 652.212708,114.120781 652.238525,114.608215 
	C652.354065,116.795242 653.202637,118.943535 653.786682,121.105812 
	C656.968445,126.640602 660.150208,132.175385 663.792358,138.185562 
	C665.057678,140.104813 665.862549,141.548660 666.667480,142.992523 
	C666.667480,142.992508 666.288208,143.135361 666.094116,143.077118 
z"/>
<path fill="#BFFBCE" opacity="1.000000" stroke="none" 
	d="
M587.379761,287.958923 
	C591.183044,272.259125 595.347290,256.539642 599.540405,240.827881 
	C604.467468,222.365677 609.554688,203.944550 614.269104,185.428360 
	C615.494324,180.616348 617.499207,178.739426 622.726929,178.861618 
	C638.695618,179.234894 654.678650,178.997177 672.240234,178.997177 
	C659.915039,170.219315 653.114197,159.585220 652.146851,144.763855 
	C656.195190,144.763855 659.641541,144.763855 663.480713,145.267365 
	C662.405579,146.183548 660.821289,146.374054 659.499695,147.066147 
	C657.911072,147.898102 655.877197,148.854568 655.225891,150.295090 
	C653.941345,153.136154 657.833862,160.549973 660.873779,162.060577 
	C663.560364,165.538986 666.255310,169.011063 668.930603,172.498138 
	C670.632446,174.716324 672.305115,176.956848 673.660156,179.708618 
	C672.222046,180.502594 671.114624,180.775299 669.577759,181.021973 
	C667.427734,181.025452 665.707092,181.054932 663.537231,181.067154 
	C660.384094,181.081787 657.680237,181.113678 654.976318,181.145569 
	C653.599426,181.119415 652.222473,181.093262 649.965210,181.052551 
	C643.716492,181.067627 638.348206,181.097275 632.979858,181.126923 
	C631.276550,181.103958 629.573303,181.080994 627.022644,181.045532 
	C622.715454,181.428131 618.496643,180.066345 616.996582,184.998169 
	C616.646545,186.094376 616.296448,187.190598 615.647949,188.879837 
	C614.224792,193.980011 613.100159,198.487167 611.975525,202.994324 
	C611.623291,204.727661 611.271057,206.460999 610.585449,208.762833 
	C608.520020,215.557404 606.787903,221.783478 605.055847,228.009552 
	C605.030640,228.447906 605.005432,228.886261 604.687622,229.913727 
	C603.280823,234.671356 602.166565,238.839874 601.052307,243.008392 
	C600.984436,244.334167 600.916565,245.659943 600.506409,247.513184 
	C598.791321,252.362701 597.418518,256.684784 596.045776,261.006866 
	C596.035339,261.173370 596.024963,261.339874 595.850586,262.088593 
	C594.464355,266.781342 593.242065,270.891876 592.019775,275.002441 
	C591.666565,277.864899 591.611328,280.810181 590.847229,283.558380 
	C590.395996,285.181091 588.822388,286.491699 587.379761,287.958923 
z"/>
<path fill="#BFFBCE" opacity="1.000000" stroke="none" 
	d="
M545.046265,179.495300 
	C563.489258,179.110184 581.980347,179.091324 600.471436,179.103104 
	C601.095337,179.103500 601.718933,179.412643 602.896362,179.724533 
	C593.278076,215.640732 583.696533,251.419632 574.015381,287.571594 
	C573.434998,285.694702 572.156860,283.262390 572.621948,281.228729 
	C574.059204,274.944000 576.276978,268.842865 577.978333,262.612213 
	C580.737732,252.507523 583.298523,242.348740 586.003296,232.228897 
	C587.101501,228.120239 588.497192,224.088043 589.510193,219.960373 
	C591.138977,213.323959 592.421265,206.600937 594.117920,199.983246 
	C595.445496,194.805450 597.196594,189.736893 598.708984,184.604935 
	C598.882812,184.015030 598.732544,183.329605 598.732544,181.918106 
	C596.864990,181.918106 595.105164,181.917969 593.345337,181.918106 
	C579.531677,181.919296 565.716797,182.013351 551.905579,181.829590 
	C549.626892,181.799271 547.364380,180.551529 545.046265,179.495300 
z"/>
<path fill="#353536" opacity="1.000000" stroke="none" 
	d="
M642.089417,212.174973 
	C636.071411,215.683899 626.558838,215.510025 624.139893,211.004242 
	C622.262573,207.507446 621.688110,202.506989 622.515503,198.593704 
	C623.305969,194.854828 626.481812,191.590469 631.223511,191.016571 
	C637.652954,190.238419 642.212524,192.060303 644.985535,196.908112 
	C647.605896,201.489044 646.663513,206.929672 642.089417,212.174973 
M624.393799,201.058044 
	C623.717651,205.943542 625.884949,209.427460 629.999512,211.692520 
	C633.728577,213.745377 637.400208,213.108490 640.654541,210.495392 
	C643.942871,207.855011 645.052124,204.311310 644.023132,200.275955 
	C642.926941,195.976990 639.901245,193.582199 635.588684,192.960861 
	C630.725708,192.260208 627.257263,194.676422 624.393799,201.058044 
z"/>
<path fill="#F4FEF8" opacity="1.000000" stroke="none" 
	d="
M661.195923,161.901428 
	C657.833862,160.549973 653.941345,153.136154 655.225891,150.295090 
	C655.877197,148.854568 657.911072,147.898102 659.499695,147.066147 
	C660.821289,146.374054 662.405579,146.183548 663.929321,145.384674 
	C664.441467,144.953156 664.897766,144.907852 665.693787,144.925720 
	C669.725525,144.931641 669.207520,146.956284 667.344971,148.476395 
	C665.761963,149.768417 663.419861,150.104187 661.460938,150.970291 
	C659.946899,151.639709 658.506287,152.475082 657.141846,153.180435 
	C658.366699,156.749878 665.705872,156.211823 661.195923,161.901428 
z"/>
<path fill="#F8FEF8" opacity="1.000000" stroke="none" 
	d="
M596.423523,261.016052 
	C597.418518,256.684784 598.791321,252.362701 600.515381,247.911316 
	C601.670776,248.743591 602.560547,249.647751 603.254578,250.683090 
	C603.929932,251.690613 605.091919,253.026047 604.850647,253.882324 
	C603.721863,257.888306 602.182190,261.778473 600.684082,266.007263 
	C599.087341,263.958466 597.944336,262.491852 596.423523,261.016052 
z"/>
<path fill="#F5FFF8" opacity="1.000000" stroke="none" 
	d="
M643.935913,72.686096 
	C638.638611,73.739571 633.287048,74.427658 627.528503,75.156868 
	C626.189819,73.818153 625.258179,72.438309 623.960388,70.516243 
	C623.584351,71.580032 623.639404,71.050522 623.803406,71.014267 
	C630.617676,69.508080 637.327820,69.753670 643.935913,72.686096 
z"/>
<path fill="#F4FEF9" opacity="1.000000" stroke="none" 
	d="
M605.433777,227.960876 
	C606.787903,221.783478 608.520020,215.557404 610.564453,209.152451 
	C614.245483,209.821121 612.994446,212.108475 612.405151,214.092621 
	C611.304626,217.798035 610.263367,221.536469 608.851440,225.125046 
	C608.399109,226.274780 606.855835,226.995316 605.433777,227.960876 
z"/>
<path fill="#F6FEF8" opacity="1.000000" stroke="none" 
	d="
M612.352295,202.995560 
	C613.100159,198.487167 614.224792,193.980011 615.621216,189.229019 
	C617.057068,189.525360 618.308899,189.935364 619.359253,190.644043 
	C620.318909,191.291534 621.060425,192.262299 621.898071,193.090576 
	C620.957336,193.733139 619.815002,194.209290 619.118469,195.053360 
	C617.725525,196.741348 616.637207,198.677109 615.303284,200.418793 
	C614.571228,201.374634 613.595154,202.143585 612.352295,202.995560 
z"/>
<path fill="#F5FEF8" opacity="1.000000" stroke="none" 
	d="
M659.072449,103.767044 
	C656.241394,99.056885 653.567993,94.014122 650.862671,88.614288 
	C651.872375,87.770889 652.914062,87.284576 652.973083,87.257019 
	C655.016113,91.301720 656.872559,94.585983 658.332336,98.038010 
	C659.023010,99.671288 658.954590,101.625595 659.072449,103.767044 
z"/>
<path fill="#F5FFFB" opacity="1.000000" stroke="none" 
	d="
M633.003784,181.529816 
	C638.348206,181.097275 643.716492,181.067627 649.552979,181.085449 
	C649.675293,181.990646 649.333984,183.592270 648.983032,183.594391 
	C643.819336,183.625580 638.653931,183.457077 633.492004,183.255325 
	C633.320251,183.248611 633.181702,182.392761 633.003784,181.529816 
z"/>
<path fill="#F5FFFB" opacity="1.000000" stroke="none" 
	d="
M617.377869,185.004761 
	C618.496643,180.066345 622.715454,181.428131 626.597778,181.076752 
	C625.554871,187.315384 624.933289,187.576523 617.377869,185.004761 
z"/>
<path fill="#F8FEF8" opacity="1.000000" stroke="none" 
	d="
M592.379639,274.961487 
	C593.242065,270.891876 594.464355,266.781342 595.854492,262.338806 
	C596.165649,263.995605 596.308960,265.984406 596.451965,267.968414 
	C597.497925,268.539246 598.708008,269.199646 599.918091,269.860046 
	C598.884521,270.645630 597.874023,271.464111 596.811707,272.208588 
	C595.476501,273.144257 594.098877,274.019318 592.379639,274.961487 
z"/>
<path fill="#F4FEF9" opacity="1.000000" stroke="none" 
	d="
M601.407532,242.941208 
	C602.166565,238.839874 603.280823,234.671356 604.675415,230.242828 
	C605.632141,232.476929 606.436279,234.944778 606.956116,237.471130 
	C607.818787,241.663773 603.180786,240.759506 601.407532,242.941208 
z"/>
<path fill="#F5FFF8" opacity="1.000000" stroke="none" 
	d="
M654.137085,120.935730 
	C653.202637,118.943535 652.354065,116.795242 652.238525,114.608215 
	C652.212708,114.120781 654.764343,113.497147 656.559448,112.947189 
	C656.155518,115.560638 655.321533,118.163139 654.137085,120.935730 
z"/>
<path fill="#F5FFFB" opacity="1.000000" stroke="none" 
	d="
M654.988281,181.505737 
	C657.680237,181.113678 660.384094,181.081787 663.652222,181.311707 
	C664.478455,182.048218 664.740417,182.522919 665.002380,182.997620 
	C663.667297,183.536514 662.174927,183.850876 661.026001,184.655579 
	C657.275879,187.282089 655.884094,185.215118 654.988281,181.505737 
z"/>
<path fill="#E9FFF4" opacity="1.000000" stroke="none" 
	d="
M586.007996,290.012482 
	C583.747742,294.011200 579.474731,294.291534 575.525757,290.345337 
	C579.283875,289.980499 582.645935,289.996490 586.007996,290.012482 
z"/>
<path fill="#BFFBCE" opacity="1.000000" stroke="none" 
	d="
M586.255371,289.840790 
	C582.645935,289.996490 579.283875,289.980499 575.464600,289.971741 
	C574.655945,289.553619 574.304565,289.128235 573.988586,288.418762 
	C578.035950,288.118866 582.047974,288.102997 586.520630,288.051636 
	C586.821838,288.567139 586.662292,289.118103 586.255371,289.840790 
z"/>
<path fill="#F4FDF7" opacity="1.000000" stroke="none" 
	d="
M666.982422,142.980103 
	C665.862549,141.548660 665.057678,140.104813 664.093140,138.350235 
	C665.712952,137.856018 667.492432,137.672516 670.859741,137.325272 
	C669.343872,139.726212 668.320618,141.346954 666.982422,142.980103 
z"/>
<path fill="#E2FFF1" opacity="1.000000" stroke="none" 
	d="
M665.001221,182.998810 
	C664.740417,182.522919 664.478455,182.048218 664.101501,181.328949 
	C665.707092,181.054932 667.427734,181.025452 669.465027,181.272308 
	C669.521973,182.033051 669.262207,182.517441 669.002502,183.001831 
	C668.835876,183.002335 668.669189,183.002853 667.877319,183.000580 
	C666.502075,182.997665 665.752014,182.997543 665.001892,182.997421 
	C665.001892,182.997421 665.000000,183.000000 665.001221,182.998810 
z"/>
<path fill="#F5FFFB" opacity="1.000000" stroke="none" 
	d="
M669.410278,183.002319 
	C669.262207,182.517441 669.521973,182.033051 669.894531,181.298340 
	C671.114624,180.775299 672.222046,180.502594 673.642700,180.076599 
	C674.354309,183.338379 671.981445,183.029831 669.410278,183.002319 
z"/>
<path fill="#F5FFF8" opacity="1.000000" stroke="none" 
	d="
M648.172485,77.843758 
	C647.567627,77.257545 647.237488,76.476524 646.904785,75.360214 
	C647.417236,75.899597 647.932251,76.774277 648.172485,77.843758 
z"/>
<path fill="#F5FFFB" opacity="1.000000" stroke="none" 
	d="
M665.138428,183.280487 
	C665.752014,182.997543 666.502075,182.997665 667.627319,183.001953 
	C667.093262,183.191925 666.184082,183.377747 665.138428,183.280487 
z"/>
<path fill="#BFFBCE" opacity="1.000000" stroke="none" 
	d="
M544.127441,178.113449 
	C544.520264,177.966095 544.723633,178.187912 544.793823,178.762421 
	C544.548828,178.786026 544.307922,178.575211 544.127441,178.113449 
z"/>
<path fill="#FCFCFC" opacity="1.000000" stroke="none" 
	d="
M503.915466,265.002869 
	C494.071991,251.152756 493.439758,228.846756 502.314728,214.993546 
	C513.557800,197.443848 538.800537,197.466858 549.279175,215.506317 
	C557.927307,230.394485 557.978333,246.297531 549.871643,261.319550 
	C540.279480,279.094177 517.995239,280.678467 503.915466,265.002869 
z"/>
<path fill="#FCFCFC" opacity="1.000000" stroke="none" 
	d="
M150.241394,219.453674 
	C156.927429,206.725281 166.536621,201.004120 178.869034,202.148621 
	C190.610870,203.238327 199.947342,211.373871 203.687439,224.302444 
	C207.235901,236.568558 206.837158,248.747330 200.913055,260.254089 
	C195.663895,270.449890 187.136978,275.860687 175.488098,275.623413 
	C164.043915,275.390320 155.796738,269.746033 150.990570,259.586639 
	C144.831360,246.567215 145.126373,233.185486 150.241394,219.453674 
z"/>
<path fill="#02E329" opacity="1.000000" stroke="none" 
	d="
M605.462891,184.618347 
	C607.786316,178.821320 605.837708,176.194687 598.760498,176.058197 
	C589.939697,175.888062 581.113281,176.010223 572.289246,176.006836 
	C566.541077,176.004639 560.792908,176.011490 555.044739,175.999344 
	C551.164429,175.991135 549.671875,173.596786 549.458801,169.744110 
	C549.149780,164.155472 550.976074,159.447937 553.913635,155.044067 
	C554.989624,153.430908 556.774597,152.287643 558.249634,150.944794 
	C558.950256,150.306915 560.048828,149.841141 560.340881,149.062485 
	C562.245056,143.986404 566.888245,144.401718 570.932922,143.423798 
	C572.808960,142.970215 575.339233,142.356537 576.171143,140.972702 
	C578.984924,136.292236 581.171570,131.234756 583.950256,125.607849 
	C583.719421,125.588310 584.959106,125.693253 586.714539,125.841858 
	C586.164185,123.821503 585.716736,122.179077 585.573792,121.654312 
	C587.895447,118.755714 589.259644,115.580925 591.607361,114.452293 
	C595.523743,112.569580 600.166321,110.880394 604.318420,111.240417 
	C607.396973,111.507347 608.343628,111.436089 609.240051,108.690834 
	C610.751160,104.062775 612.311584,99.424583 614.309814,94.997658 
	C614.914490,93.658051 617.033691,93.002075 618.568787,91.958420 
	C618.155151,84.865425 628.479004,79.324020 641.421997,80.262566 
	C642.245972,83.214462 643.486389,86.305252 643.895569,89.502434 
	C644.309998,92.740623 643.608765,95.664772 647.857544,97.558777 
	C649.964294,98.497925 650.724121,102.695885 651.738708,105.545731 
	C651.864624,105.899429 649.606628,107.855888 648.791687,107.660225 
	C645.214722,106.801460 644.964905,109.346382 645.133850,111.336700 
	C645.710144,118.127708 647.177490,124.683411 651.002258,130.573730 
	C652.389282,132.709839 653.127747,135.309448 653.896545,137.780212 
	C654.144897,138.578445 653.800354,140.279709 653.293640,140.481964 
	C648.754822,142.293549 649.319641,145.776932 649.962463,149.452469 
	C650.187683,150.740005 650.375427,152.301544 649.863464,153.405502 
	C647.279358,158.977463 651.674438,162.258957 653.806396,166.295059 
	C654.820557,168.215088 656.914490,171.586945 656.554077,171.879349 
	C654.378784,173.644501 651.704529,175.628433 649.067261,175.828918 
	C642.114685,176.357361 635.089111,175.824890 628.105042,176.069595 
	C622.579163,176.263199 617.071716,176.982544 611.872803,177.440521 
	C610.343140,181.376831 612.407104,187.348557 605.462891,184.618347 
z"/>
<path fill="#E4E4E4" opacity="1.000000" stroke="none" 
	d="
M624.513794,200.692276 
	C627.257263,194.676422 630.725708,192.260208 635.588684,192.960861 
	C639.901245,193.582199 642.926941,195.976990 644.023132,200.275955 
	C645.052124,204.311310 643.942871,207.855011 640.654541,210.495392 
	C637.400208,213.108490 633.728577,213.745377 629.999512,211.692520 
	C625.884949,209.427460 623.717651,205.943542 624.513794,200.692276 
M635.726807,204.808945 
	C636.156799,205.025665 636.586853,205.242386 637.016846,205.459091 
	C637.608276,203.651688 638.199707,201.844269 638.869934,199.795898 
	C635.933594,198.707352 633.169617,197.682709 630.448975,196.674133 
	C630.448975,200.986099 630.448975,204.721481 630.448975,208.456848 
	C630.741028,208.467758 631.033020,208.478668 631.325073,208.489594 
	C631.638611,206.805725 631.952148,205.121857 632.318542,203.154205 
	C633.451233,203.575699 634.344849,203.908234 635.726807,204.808945 
z"/>
<path fill="#272727" opacity="1.000000" stroke="none" 
	d="
M635.482605,204.524857 
	C634.344849,203.908234 633.451233,203.575699 632.318542,203.154205 
	C631.952148,205.121857 631.638611,206.805725 631.325073,208.489594 
	C631.033020,208.478668 630.741028,208.467758 630.448975,208.456848 
	C630.448975,204.721481 630.448975,200.986099 630.448975,196.674133 
	C633.169617,197.682709 635.933594,198.707352 638.869934,199.795898 
	C638.199707,201.844269 637.608276,203.651688 637.016846,205.459106 
	C636.586853,205.242386 636.156799,205.025665 635.482605,204.524857 
z"/>
</svg>