<?xml version="1.0" encoding="utf-8"?>
<!-- Generator: Adobe Illustrator 19.0.0, SVG Export Plug-In . SVG Version: 6.00 Build 0)  -->
<svg version="1.1" id="layer" xmlns="http://www.w3.org/2000/svg" xmlns:xlink="http://www.w3.org/1999/xlink" x="0px" y="0px"
	 viewBox="-153 -46 652 652" style="enable-background:new -153 -46 652 652;" xml:space="preserve">
<style type="text/css">
	.st0{fill:#FFFFFF;}
	.st1{fill:#009FE8;}
	.st2{fill-rule:evenodd;clip-rule:evenodd;fill:#BAE2F8;}
	.st3{fill:#231815;}
</style>
<polygon class="st0" points="-101.7,216.3 -130.6,301.5 392.7,301.5 421.7,216.3 "/>
<path class="st1" d="M-101.2,217h521.9l-28.5,83.8h-521.9L-101.2,217z M-102.2,215.6l-29.4,86.6h524.9l29.5-86.6H-102.2z"/>
<polygon class="st2" points="385.4,291.4 150.1,291.4 172.1,226.5 407.4,226.5 "/>
<g>
	<path class="st1" d="M-110.9,282.8l17-48.6h23c10.8,0,18.5,2.6,15.1,12.2c-1.7,5-6.2,8.6-10,10.6c4.7,1.4,6,5.9,4.1,11.1
		c-3.8,10.9-13.3,14.7-25.8,14.7H-110.9z M-88,262.5l-3.1,9h6.9c3.9,0,7.1-0.8,8.3-4.5c1.5-4.2-2.1-4.5-7.1-4.5H-88z M-82.1,245.5
		l-2.8,8.1h6.5c3.1,0,5.9-1.4,6.9-4.2c1.3-3.8-1.7-3.8-5.1-3.8H-82.1z"/>
	<path class="st1" d="M-42.8,268.3c-1.5,4.2,0.8,6.9,4.4,6.9c2.2,0,4.6-1,6.3-3.1h13.3c-5.5,8.8-15.3,11.7-23.4,11.7
		c-11.2,0-17.6-6.5-13.4-18.4c4.1-11.6,15.3-19.1,26.4-19.1c12.9,0,17.6,9.1,12.9,21.9H-42.8z M-27.6,261.1c1.1-3.2-0.7-6.1-4-6.1
		c-4.1,0-7.3,2.4-8.6,6.1H-27.6z"/>
	<path class="st1" d="M-3.4,247.4H9.2l-2.5,7.2h0.1c3.9-5.5,8.2-8.2,13.6-8.2c0.6,0,1.2,0.1,1.7,0.2l-4.9,14
		c-0.9-0.1-1.8-0.4-2.7-0.4c-5.7,0-9.5,2.7-12.1,10.3l-4.3,12.2h-13.9L-3.4,247.4z"/>
	<path class="st1" d="M27.7,284.6c-0.1,0.4-0.1,1,0.3,1.6c0.4,0.5,1.3,0.9,2.7,0.9c4,0,6.2-1.8,8-6.9l1-2.9c-2.7,2-6.3,3.8-11.3,3.8
		c-9.7,0-12.5-7.7-9.4-16.7c3-8.7,10.4-17.9,21.9-17.9c4.2,0,7.4,2.2,8.6,5.7l1.6-4.6h12.2l-10,28.5c-3.7,10.6-7.8,18.9-25,18.9
		c-12.3,0-15.8-5-14.7-10.2H27.7z M32.9,264.5c-1.2,3.5-0.7,6.8,3.1,6.9c4.2,0.2,7.1-3.5,8.4-7.3c1.4-3.9,1.2-7.6-3.2-7.6
		C37,256.4,34.5,259.9,32.9,264.5"/>
	<path class="st1" d="M75.8,268.3c-1.5,4.2,0.8,6.9,4.4,6.9c2.2,0,4.6-1,6.3-3.1h13.3c-5.5,8.8-15.3,11.7-23.4,11.7
		c-11.2,0-17.6-6.5-13.4-18.4c4.1-11.6,15.3-19.1,26.5-19.1c12.9,0,17.6,9.1,12.9,21.9H75.8z M90.9,261.1c1.1-3.2-0.7-6.1-4-6.1
		c-4.1,0-7.3,2.4-8.6,6.1H90.9z"/>
	<path class="st1" d="M115.1,247.4h12.6l-2.5,7.2h0.1c3.9-5.5,8.2-8.2,13.6-8.2c0.6,0,1.2,0.1,1.7,0.2l-4.9,14
		c-0.9-0.1-1.8-0.4-2.7-0.4c-5.7,0-9.5,2.7-12.1,10.3l-4.3,12.2h-13.9L115.1,247.4z"/>
	<polygon class="st1" points="134.9,271.7 139.2,259.4 157.1,259.4 152.8,271.7 	"/>
	<path class="st0" d="M198.9,248.3c0.3-1.7-0.2-2.7-1.1-3.3c-0.9-0.6-2.2-0.9-3.8-0.9c-3.5,0-5.4,1-6,2.8
		c-2.5,7.3,26.7,2.8,20.5,20.5c-3.9,11.3-15.1,16.7-28.3,16.7c-12.7,0-18.3-7.5-15.6-16.3h15.1c-0.3,1.7,0.2,3,1.2,3.8
		c1,0.8,2.5,1.2,4.1,1.2c3.9,0,7-1.3,7.8-3.6c2.6-7.4-26.8-2.3-20.3-20.9c3.6-10.3,14.2-15.5,26.3-15.5c13.3,0,17,6.9,15.1,15.4
		H198.9z"/>
	<path class="st1" d="M180.2,284.8c-6.7,0-12-2.1-14.8-5.9c-2.3-3.1-2.8-7.1-1.5-11.3l0.2-0.5h16.4l-0.1,0.8c-0.2,1.4,0.1,2.5,1,3.2
		c0.8,0.7,2.1,1.1,3.6,1.1c3.7,0,6.4-1.2,7.1-3.1c0.2-0.6,0.1-1,0-1.2c-0.7-1.3-3.7-2.1-6.9-2.9c-4.9-1.3-11-2.9-13.4-7.3
		c-1.3-2.5-1.4-5.7,0-9.4c3.5-10,13.6-16,26.9-16c6.6,0,11.3,1.7,14,4.9c2.3,2.8,2.9,6.7,1.9,11.3l-0.1,0.6H198l0.2-0.8
		c0.3-1.6-0.3-2.3-0.8-2.6c-0.8-0.5-1.9-0.8-3.4-0.8c-3,0-4.8,0.8-5.3,2.3c-0.2,0.5-0.2,0.9,0,1.2c0.7,1.3,3.8,2.1,7.1,3
		c4.9,1.3,11,3,13.3,7.4c1.3,2.4,1.3,5.4,0.1,8.8C205.4,278.4,194.5,284.8,180.2,284.8 M165.1,268.5c-1,3.6-0.5,6.9,1.4,9.5
		c2.5,3.4,7.4,5.3,13.6,5.3c14,0,24-5.9,27.6-16.2c1.1-3.1,1.1-5.6,0-7.7c-2-3.8-7.6-5.3-12.4-6.7c-3.9-1.1-6.9-1.9-7.9-3.8
		c-0.4-0.7-0.4-1.5-0.1-2.3c0.7-2.1,3-3.3,6.7-3.3c1.7,0,3.2,0.3,4.1,1c0.8,0.5,1.6,1.5,1.5,3.2h13.5c0.7-3.9,0.2-7.2-1.7-9.5
		c-2.4-2.9-6.7-4.4-12.9-4.4c-12.7,0-22.3,5.6-25.6,15c-1.2,3.4-1.2,6.1-0.1,8.3c2.1,3.9,7.6,5.3,12.5,6.6c3.8,1,6.8,1.8,7.8,3.6
		c0.4,0.7,0.4,1.5,0.1,2.3c-0.9,2.5-4.1,4.1-8.5,4.1c-1.8,0-3.4-0.5-4.5-1.4c-0.8-0.6-1.7-1.7-1.6-3.7H165.1z"/>
	<path class="st0" d="M226.3,268.3c-1.5,4.2,0.8,6.9,4.4,6.9c2.2,0,4.6-1,6.3-3.1h13.3c-5.5,8.8-15.3,11.7-23.4,11.7
		c-11.2,0-17.6-6.5-13.4-18.4c4.1-11.6,15.3-19.1,26.4-19.1c12.9,0,17.6,9.1,12.9,21.9H226.3z M241.4,261.1c1.1-3.2-0.7-6.1-4-6.1
		c-4.1,0-7.3,2.4-8.6,6.1H241.4z"/>
	<path class="st1" d="M226.9,284.5c-6.1,0-10.9-1.9-13.4-5.5c-2.4-3.4-2.7-8.2-0.7-13.8c4-11.5,15.2-19.5,27.1-19.5
		c6,0,10.6,1.9,13.1,5.6c2.9,4.1,3,10.2,0.5,17.3l-0.2,0.5h-26.5c-0.5,1.6-0.3,3,0.4,3.9c0.7,1,2,1.6,3.5,1.6c2.1,0,4.2-1,5.7-2.8
		l0.2-0.3h14.9l-0.7,1.1C244.1,283.3,231.8,284.5,226.9,284.5 M239.9,247.1c-11.4,0-22,7.6-25.8,18.5c-1.8,5.2-1.6,9.5,0.5,12.6
		c2.2,3.1,6.6,4.8,12.2,4.8c4.6,0,15.6-1,22.1-10.2h-11.6c-1.7,2-4.1,3.1-6.6,3.1c-2,0-3.7-0.8-4.7-2.2c-1.1-1.5-1.2-3.5-0.4-5.7
		l0.2-0.5h26.5c2.2-6.4,2.1-11.9-0.5-15.5C249.6,248.8,245.4,247.1,239.9,247.1 M241.9,261.9h-14.1l0.3-1c1.5-4.2,4.9-6.6,9.3-6.6
		c1.7,0,3.2,0.7,4.1,2c1,1.4,1.2,3.2,0.5,5.1L241.9,261.9z M229.9,260.4h11c0.3-1.2,0.1-2.4-0.5-3.3c-0.6-0.9-1.7-1.4-3-1.4
		C234,255.7,231.3,257.4,229.9,260.4"/>
	<path class="st0" d="M253.9,282.8l12.4-35.4h13.9l-12.4,35.4H253.9z M271.4,232.9h13.9l-3.5,10h-13.9L271.4,232.9z"/>
	<path class="st1" d="M268.3,283.5h-15.4l12.9-36.8h15.4L268.3,283.5z M254.9,282.1h12.4l11.9-33.9h-12.4L254.9,282.1z M282.2,243.6
		h-15.4l4-11.4h15.4L282.2,243.6z M268.9,242.2h12.3l3-8.6h-12.4L268.9,242.2z"/>
	<path class="st0" d="M300.8,282.8l1.6-4.7c-4.8,4.3-8.3,5.7-12.7,5.7c-10.5,0-13.1-8-9.6-18c4.1-11.7,13.3-19.4,21.6-19.4
		c4.4,0,7.1,1.1,8.8,4.6l5.9-16.8h13.9l-17,48.6H300.8z M305.9,265.5c1.4-3.9,1.5-8.2-3.1-8.2c-4.6,0-7.4,4.5-8.8,8.4
		c-1.3,3.7-1.9,8,2.7,8C301.5,273.7,304.5,269.6,305.9,265.5"/>
	<path class="st1" d="M289.7,284.5c-4.5,0-7.9-1.5-9.9-4.2c-2.4-3.4-2.5-8.6-0.4-14.8c4.1-11.7,13.2-19.9,22.2-19.9
		c4.3,0,6.9,1.1,8.6,3.6l5.5-15.8h15.4l-17.5,50h-14l1.1-3.2C297.1,283.3,293.8,284.5,289.7,284.5 M301.7,247.1
		c-8.3,0-17.1,7.9-20.9,18.9c-2,5.7-1.9,10.5,0.2,13.5c1.7,2.4,4.6,3.6,8.7,3.6c4.5,0,7.8-1.5,12.3-5.6l2.1-1.9l-2.3,6.4h11
		l16.5-47.1h-12.4l-6.3,17.9l-0.8-1.5C308.4,248.3,306.2,247.1,301.7,247.1 M296.7,274.4c-1.6,0-2.8-0.5-3.6-1.5
		c-1.1-1.5-1-3.9,0.2-7.4c0.9-2.7,3.7-8.9,9.5-8.9c1.7,0,3,0.6,3.8,1.6c1.4,2,0.7,5.2-0.1,7.5C305.7,268.3,302.9,274.4,296.7,274.4
		 M302.9,258c-4.9,0-7.3,5.5-8.1,7.9c-1,2.9-1.2,5.1-0.4,6.1c0.5,0.6,1.2,0.9,2.4,0.9c5.3,0,7.7-5.4,8.6-7.7c1-2.8,1-5,0.2-6.2
		C305,258.3,304.1,258,302.9,258"/>
	<polygon class="st0" points="320.6,282.8 337.6,234.2 351.5,234.2 334.5,282.8 	"/>
	<path class="st1" d="M335,283.5h-15.4l17.5-50h15.4L335,283.5z M321.6,282.1H334l16.5-47.2h-12.4L321.6,282.1z"/>
	<path class="st0" d="M359.7,268.3c-1.5,4.2,0.7,6.9,4.4,6.9c2.2,0,4.6-1,6.3-3.1h13.3c-5.5,8.8-15.3,11.7-23.4,11.7
		c-11.2,0-17.6-6.5-13.4-18.4c4.1-11.6,15.3-19.1,26.5-19.1c12.9,0,17.6,9.1,12.9,21.9H359.7z M374.8,261.1c1.1-3.2-0.7-6.1-4-6.1
		c-4.1,0-7.3,2.4-8.6,6.1H374.8z"/>
</g>
<g>
	<path class="st1" d="M360.3,284.5c-6.1,0-10.9-1.9-13.4-5.5c-2.4-3.4-2.7-8.2-0.7-13.8c4-11.5,15.2-19.5,27.2-19.5
		c6,0,10.5,1.9,13.1,5.6c2.9,4.1,3,10.2,0.5,17.3l-0.2,0.5h-26.4c-0.5,1.6-0.3,3,0.4,4c0.7,1,2,1.5,3.5,1.5c2.1,0,4.2-1,5.7-2.8
		l0.2-0.3H385l-0.7,1.1C377.5,283.3,365.2,284.5,360.3,284.5 M373.3,247.1c-11.4,0-22,7.6-25.8,18.5c-1.8,5.2-1.6,9.5,0.5,12.5
		c2.2,3.2,6.6,4.9,12.2,4.9c4.6,0,15.6-1,22.1-10.2h-11.6c-1.7,2-4.1,3.1-6.6,3.1c-2,0-3.7-0.8-4.7-2.2c-1.1-1.5-1.2-3.5-0.4-5.7
		l0.2-0.5h26.5c2.2-6.4,2.1-11.9-0.5-15.5C382.9,248.8,378.8,247.1,373.3,247.1 M375.3,261.9h-14.1l0.3-1c1.5-4.2,4.9-6.6,9.3-6.6
		c1.7,0,3.2,0.7,4.1,2c1,1.4,1.2,3.2,0.5,5.1L375.3,261.9z M363.3,260.4h11c0.3-1.2,0.1-2.4-0.5-3.3c-0.7-0.9-1.7-1.4-3-1.4
		C367.4,255.7,364.7,257.4,363.3,260.4"/>
	<path class="st3" d="M157.8,318.8c0.1,2.5-1.1,4.7-3.4,6.6c-1.8,1.4-4.1,2.6-7,3.4c-0.7,0.1-1.7,0.4-3.1,0.8
		c-0.1,0-0.7,1.2-1.8,3.6c-1.2,2.4-1.9,3.6-2.1,3.7c-0.4,0-0.8-0.3-1.2-0.8c-0.4-0.5-0.6-1-0.7-1.4c0-0.2,0.4-1.2,1.3-2.7
		c0.8-1.6,1.3-2.5,1.3-2.8c0-0.1-0.1-0.5-0.4-1c-0.3-0.5-0.4-0.8-0.4-1c0-0.7,0.2-1,0.5-1.1c0.1,0,0.2,0,0.5,0.1
		c0.2,0.1,0.4,0.1,0.5,0.1c0.7,0,1.6-1.1,2.6-3.2c1.4-2.8,2.5-4.7,3.4-5.7c1.7-2.1,3.8-3.2,6.3-3.3c1.1,0,2,0.5,2.8,1.5
		C157.4,316.6,157.8,317.7,157.8,318.8 M155.8,317.6c-0.8-0.5-1.6-0.7-2.4-0.6c-2,0.1-3.8,1.8-5.6,5.2l-1.7,3.5l0.5,0.2
		c2.9-1.3,4.8-2.3,5.8-3C154.5,321.4,155.7,319.7,155.8,317.6"/>
</g>
<g>
	<path class="st3" d="M170.8,332.9c0,0.7-0.7,1.3-2.1,1.8c-1,0.4-2.1,0.6-3.1,0.6c-1.2,0-2.1-0.5-2.7-1.5c-0.2-0.3-0.4-0.5-0.6-0.6
		c-0.6,0.4-1.5,0.9-2.8,1.4c-1.4,0.6-2.3,0.9-2.9,0.9c-0.7,0-1.3-0.3-1.8-0.8c-0.4-0.5-0.7-1.1-0.7-1.9c-0.1-2.2,0.9-4.5,2.9-6.8
		c2-2.4,4.1-3.6,6.3-3.7c0.8,0,1.5,0.5,2.3,1.4c0.7,0.9,1.1,1.7,1.1,2.5c0,0.2-0.7,2.1-2.2,5.7c0.4,0.2,0.9,0.3,1.7,0.2
		c0.4,0,0.9-0.1,1.6-0.4c0.7-0.3,1.2-0.4,1.6-0.4C169.9,331.5,170.4,332,170.8,332.9 M164.8,325.8c-0.7-0.4-1.4-0.6-2-0.6
		c-0.9,0.1-2.1,1-3.7,3c-1.4,1.9-2.3,3.3-2.5,4.3c0.4,0.1,0.8,0.1,1.2,0.1c1.9-0.1,3.7-1.4,5.3-3.9
		C163.4,328.1,164,327.1,164.8,325.8"/>
	<path class="st3" d="M186.9,322.8c0,0.6-0.3,0.9-1,0.9c-0.1,0-0.3,0-0.6,0c-0.3,0-0.5,0-0.6,0c-2.3,0.1-4.3,1.4-6,3.8
		c-1.6,2.3-2.4,4.6-2.3,6.9c-0.3,0.3-0.6,0.5-0.9,0.6c-0.1,0-0.6-0.2-1.4-0.6c0-1.2,0-2.9,0.2-5.2c0.2-2.5,0.3-4.2,0.3-5.2
		c0.3-0.1,0.5-0.1,0.7-0.1c0.2,0,0.7,0.3,1.2,1c1.5-1.3,2.6-2.2,3.3-2.7c1.3-0.9,2.6-1.3,3.9-1.4c0.5,0,1.2,0.2,2,0.5
		C186.4,321.9,186.9,322.3,186.9,322.8"/>
	<path class="st3" d="M201.5,322.1c0,0.8-1.2,2-3.8,3.6c-0.4,0.2-2.1,1.2-5.1,2.8c0.7,0.5,1.9,1.2,3.4,2.2c1.3,0.9,2,2,2,3.3
		c0,0.4-0.2,0.7-0.7,0.9l-1.3-0.5l0-1.1c-2.5-1.6-4.8-2.5-6.8-2.8c-1,1.6-2.4,3.4-4,5.4c-0.3-0.2-0.6-0.6-0.9-1.1
		c-0.3-0.5-0.5-0.9-0.5-1.2c0-0.1,0.4-0.7,1.3-1.9c0.9-1.2,1.3-1.9,1.3-2.3c0-0.3-0.2-0.9-0.6-1.7c0.1,0,0.5-0.1,1.1-0.2
		c0.4,0,0.8-0.2,1-0.4c0.8-0.7,2-2.8,3.4-6.5c1.7-4.5,2.7-7,3.1-7.6c1,0.9,1.6,1.6,1.6,2.2c0,0.4-0.5,2-1.5,4.9
		c-1,2.9-1.7,4.6-2,5.1l0,0.2l0.1,0.3c0.3-0.2,1.6-1.1,4-2.7c2.2-1.5,3.4-2.3,3.5-2.3c0.2,0,0.5,0.2,0.8,0.6
		C201.3,321.6,201.5,321.9,201.5,322.1"/>
	<path class="st3" d="M214.8,323.6c0.1,1.5-0.5,2.7-1.6,3.7c-0.7,0.6-2,1.3-3.8,1.9c-2,0.7-3.4,1.3-3.9,1.6c0.7,0.5,1.8,0.7,3.5,0.6
		c0.4,0,0.9-0.2,1.7-0.5c0.7-0.3,1.3-0.4,1.7-0.5c0.2,0,0.5,0.2,0.8,0.7c0.3,0.5,0.5,0.8,0.5,1.1c0,0.6-0.6,1.2-1.8,1.5
		c-0.9,0.3-1.7,0.5-2.6,0.5c-1.8,0.1-3.3-0.3-4.5-1.1c-1.4-0.9-2-2.3-2.1-4c-0.1-2.3,1.1-4.4,3.6-6.3c2.2-1.7,4.5-2.7,6.9-2.7
		c0.5,0,1,0.4,1.3,1.4C214.7,322.2,214.8,322.9,214.8,323.6 M212.9,323.1l-0.9,0c-1,0.1-2.2,0.7-3.7,2c-1.4,1.2-2.3,2.3-2.8,3.3
		c1.4-0.7,2.8-1.3,4.2-2C211.3,325.5,212.3,324.4,212.9,323.1"/>
	<path class="st3" d="M231.1,310.5l0,0.2c0,0.6-0.2,1.3-0.7,2c-0.4,0.6-0.7,1.2-1.1,1.9c-0.6,1.8-1.5,4.1-2.6,7
		c0,0.3,0.2,0.5,0.7,0.5c0.1,0,0.4-0.1,0.7-0.1c0.3-0.1,0.6-0.1,0.7-0.1c1.4-0.1,2.1,0.8,2.3,2.5c-0.3,0.1-1.3,0.3-3,0.6
		c-1.4,0.2-2.3,0.5-2.8,0.8c-0.4,0.2-0.7,0.9-1,1.9c-0.4,1.5-0.6,2.4-0.6,2.8c0,0.3,0.1,0.7,0.4,1.2c0.3,0.5,0.4,0.9,0.4,1.2
		c0,0.2-0.2,0.4-0.5,0.7c-0.3,0.3-0.6,0.4-0.8,0.4c-0.9,0-1.4-1.3-1.5-4c-0.1-1.5,0-2.5,0.3-3c-0.2-0.1-0.5-0.1-0.7-0.1
		c-0.3,0-0.8,0.1-1.3,0.3c-0.6,0.2-1,0.3-1.3,0.3c-0.5,0-0.9-0.1-1.4-0.3l-0.1-1.9c1.6-1,3.1-1.6,4.6-1.9c0.6-0.1,0.9-0.1,1-0.1
		c0.4-0.1,0.7-0.2,0.9-0.4c0.5-0.6,1.2-2,2-4.4c1.1-3.4,1.8-5.4,2.1-6c0.8-2,1.7-3,2.5-3.1C230.9,309.3,231.1,309.7,231.1,310.5"/>
	<path class="st3" d="M246.9,309.9v0.2c0,0.6-0.2,1.3-0.7,2c-0.4,0.6-0.7,1.2-1.1,1.9c-0.6,1.7-1.4,4.1-2.6,7c0,0.3,0.2,0.5,0.7,0.5
		c0.2,0,0.4-0.1,0.8-0.1c0.3-0.1,0.6-0.1,0.7-0.1c1.4-0.1,2.1,0.8,2.3,2.5c-0.3,0.1-1.3,0.3-3,0.6c-1.4,0.2-2.3,0.5-2.8,0.8
		c-0.4,0.2-0.7,0.9-1,1.9c-0.4,1.5-0.6,2.5-0.6,2.8c0,0.3,0.1,0.7,0.4,1.2c0.3,0.5,0.4,0.9,0.4,1.2c0,0.2-0.2,0.4-0.5,0.7
		c-0.3,0.3-0.6,0.4-0.8,0.4c-0.9,0-1.4-1.3-1.5-4c-0.1-1.5,0-2.5,0.3-3c-0.2-0.1-0.4-0.1-0.7-0.1c-0.3,0-0.8,0.1-1.4,0.3
		c-0.6,0.2-1,0.3-1.3,0.3c-0.5,0-0.9-0.1-1.4-0.3l-0.1-1.9c1.6-1,3.1-1.6,4.6-1.9c0.5-0.1,0.9-0.1,1-0.1c0.4-0.1,0.7-0.2,0.9-0.4
		c0.5-0.6,1.2-2,2-4.4c1.1-3.4,1.8-5.4,2.1-6c0.8-2,1.7-3,2.5-3.1C246.6,308.8,246.9,309.1,246.9,309.9"/>
	<path class="st3" d="M277.7,318.6c0.1,3.6,0.1,6.2-0.2,7.7c-0.3,1.4-1,2.6-2.3,3.8c-1.3,1.1-2.7,1.7-4.1,1.8l-1.2,0
		c-1.9,0.1-3.2-1.3-3.9-4.1c-0.2,0.2-1,1.1-2.4,2.6c-1.1,1.2-2,1.7-2.7,1.8c-0.7,0-1-0.6-1.1-1.9c-0.1-1.3,0.3-3.2,1-5.6
		c0.4-1.2,0.9-3.1,1.7-5.7l0.7,0c0.7,0.7,1.1,1.6,1.1,2.8c0,0.7-0.1,1.6-0.3,2.8c-0.3,1.5-0.5,2.4-0.6,2.7c0.7-0.7,1.5-1.7,2.4-3
		c1.1-1.7,1.8-2.8,2.1-3.1c0.8,0.5,1.2,1.3,1.2,2.4c0,0.6-0.1,1.4-0.3,2.3c-0.3,1.2-0.5,2-0.5,2.3c0.7,0.6,1.6,0.8,2.6,0.8
		c1.8-0.1,3.1-1.1,4-3c0.7-1.5,1-3.3,1-5.2c0-0.3-0.1-0.7-0.3-1.3c-0.2-0.6-0.3-1-0.3-1.2c0-0.6,0.3-1.3,0.9-1.9
		c0.6,0.5,1,0.9,1.1,1C277.5,317.6,277.6,318,277.7,318.6"/>
	<path class="st3" d="M284,321.2c0,1.2-0.2,3-0.7,5.3c-0.5,2.3-1.1,3.9-1.7,4.9l-0.7,0c-0.3-0.5-0.5-1.1-0.5-1.9
		c-0.1-1.5,0.2-3.3,0.8-5.3c0.3-1.1,0.9-2.9,1.6-5.2C283.6,319.1,284,319.8,284,321.2 M286.3,314.4c0,1-0.3,1.5-1,1.5
		c-0.4,0-0.9-0.2-1.5-0.7l-0.1-0.2c0-0.4,0.1-1,0.4-1.7c0.3-0.8,0.5-1.2,0.8-1.2C285.9,312.5,286.3,313.3,286.3,314.4"/>
	<path class="st3" d="M294.8,312.9c0,0.7-1.1,3.9-3.2,9.5c-2.1,5.4-3.5,8.7-4.2,9.9c-0.9-0.1-1.4-0.7-1.4-1.7c0-0.5,1.1-3.6,3.2-9.4
		c1.9-5,3.2-8.5,4-10.3C294.2,311.5,294.8,312.2,294.8,312.9"/>
	<path class="st3" d="M301.9,312.7c0,0.7-1.1,3.9-3.2,9.5c-2.1,5.4-3.5,8.7-4.2,9.9c-0.9-0.1-1.4-0.7-1.4-1.7c0-0.5,1.1-3.6,3.2-9.4
		c1.9-5,3.2-8.5,4-10.3C301.3,311.3,301.9,312,301.9,312.7"/>
	<path class="st3" d="M330.6,327.9c0,0.4-0.3,0.8-1,1.2c-0.6,0.3-1.1,0.5-1.6,0.5c-2.1,0.1-3.6-1.4-4.5-4.5c-0.9,1.1-2,2.3-3.3,3.4
		c-1.7,1.6-3,2.4-3.8,2.4c-0.9,0-1.7-0.3-2.3-1.1c-0.6-0.7-0.9-1.6-0.9-2.5c-0.1-1.6,0.6-3.4,2.1-5.6c1.5-2.3,3-3.4,4.5-3.5
		c1.2-0.1,2.1,0.8,2.7,2.5c-0.2,0.2-0.5,0.4-0.7,0.4c-0.1,0-0.3,0-0.5-0.1c-0.2-0.1-0.4-0.1-0.5-0.1c-0.9,0-2,0.9-3.4,2.5
		c-1.4,1.6-2,2.9-2,3.8l0,0.9l0.7,0c1.8-1,3.2-1.9,4.1-2.8c0.9-0.9,1.8-2.3,2.8-4.1c0.2-0.4,0.6-1.1,1.2-2.1l1.9-4.7
		c0.8-2,1.7-3.4,2.4-4.2c0.7,0.2,1.1,0.7,1.2,1.6c0,0.3-0.7,2-2,5.1c-1.4,3.1-2,5.4-2,6.8c0.1,2.2,0.4,3.3,1,3.3
		c1-0.1,2.2-0.2,3.6-0.3C330.5,326.9,330.6,327.4,330.6,327.9"/>
	<path class="st3" d="M350,326.7c0,0.7-0.7,1.3-2.1,1.8c-1,0.4-2.1,0.6-3.1,0.6c-1.2,0-2.1-0.5-2.7-1.5c-0.2-0.3-0.4-0.5-0.6-0.6
		c-0.6,0.4-1.5,0.9-2.8,1.4c-1.4,0.6-2.3,0.9-2.9,0.9c-0.7,0-1.3-0.3-1.8-0.8c-0.4-0.5-0.7-1.1-0.7-1.9c-0.1-2.2,0.9-4.5,2.9-6.8
		c2-2.4,4.1-3.6,6.3-3.7c0.8,0,1.5,0.5,2.3,1.4c0.7,0.9,1.1,1.7,1.1,2.5c0,0.2-0.7,2.1-2.2,5.7c0.4,0.2,1,0.3,1.7,0.2
		c0.4,0,0.9-0.1,1.6-0.4c0.7-0.3,1.2-0.4,1.6-0.4C349.2,325.3,349.6,325.8,350,326.7 M344,319.7c-0.7-0.4-1.4-0.6-2-0.6
		c-0.9,0.1-2.1,1-3.7,3c-1.4,1.9-2.3,3.3-2.5,4.3c0.4,0.1,0.8,0.1,1.2,0.1c1.9-0.1,3.7-1.4,5.2-3.9C342.6,321.9,343.2,321,344,319.7
		"/>
	<path class="st3" d="M363,325.2c0.1,1.3-0.6,2.4-2,3.3c-1.2,0.8-2.5,1.2-3.9,1.3c-0.8,0-2-0.4-3.4-1.3l-0.1-2.5
		c0.4,0,1,0.1,1.8,0.4c0.8,0.3,1.4,0.5,1.8,0.4c0.6,0,1.4-0.2,2.4-0.6c1.2-0.4,1.8-0.8,1.8-1.3c0-0.4-0.7-1-2.2-1.8
		c-0.5-0.3-1.4-0.5-2.7-0.7c-1.3-0.1-2.2-0.3-2.7-0.5c-0.8-0.4-1.3-1.1-1.3-2.2c-0.1-1.2,0.6-2.4,2-3.3c1.2-0.8,2.5-1.3,3.8-1.3
		c1.9-0.1,2.9,0.7,3,2.3c0,0.3-0.1,0.6-0.3,1c-0.2,0.3-0.5,0.5-0.8,0.5c-0.1,0-0.3-0.2-0.6-0.5c-0.3-0.3-0.6-0.5-0.9-0.5
		c-1,0-2,0.4-3,1.2c0.6,0.5,1.6,1,3,1.6c1.4,0.6,2.4,1.1,2.9,1.5C362.4,323.1,362.9,324.1,363,325.2"/>
	<path class="st3" d="M394.5,319c0,0.9-0.4,1.9-1.2,3c-3.1,4-7.4,6.1-12.7,6.3c-1.3,0.1-2.4-0.1-3.4-0.4c-1.4-0.4-2.1-1.1-2.2-2.2
		c0-0.1,0.7-1.3,2-3.4c1.3-2.1,2-3.4,2-3.8c0-0.2-0.1-0.5-0.2-0.8c-0.1-0.3-0.2-0.6-0.2-0.8c0-0.2,0-0.4,0-0.6
		c0.9-0.3,1.6-1,2.1-1.9c0.1-0.2,0.5-1.1,1.1-2.7c-0.7,0.1-1.5,0.6-2.5,1.6c-0.5,0.5-1.2,1.2-2.1,2.3c-0.3-0.2-0.5-0.5-0.5-0.9
		c0-0.7,0.4-1.6,1.3-2.8c0.7-0.9,1.4-1.7,2.1-2.3c1.6-1.5,3.2-2.5,4.7-3.1c1.5-0.6,3.3-0.9,5.5-1c0.4,0,1,0.6,1.7,1.7
		c0.8,1.2,1.2,2,1.2,2.4c0.1,1.6-1.4,3.3-4.5,5.3c1.8,0.6,3,1,3.5,1.2C393.8,316.8,394.5,317.8,394.5,319 M391.9,319.3
		c-0.1-1.4-1.1-2.1-3-2c-3,0.1-4.1,0.1-3.5,0.1c-1.5,0.1-2.6,0.4-3.2,0.8c-0.3,0.6-0.9,1.7-2.1,3.4c-1,1.6-1.6,2.6-1.7,3
		c2.3,0.8,3.7,1.3,4.4,1.2c1.6-0.1,3.5-0.8,5.6-2.1C390.8,322.2,391.9,320.8,391.9,319.3 M390.6,309.1c-0.4,0-1,0-1.8,0
		c-0.8,0-1.4-0.1-1.8,0c-1.1,0-2.3,0.5-3.5,1.3c0.5,0.7,0.8,1.4,0.8,1.9c0,0.4-0.1,0.8-0.2,1.3l-0.4,1.3c1.2-0.4,2.5-1.2,4.1-2.3
		C389.8,311.1,390.7,309.9,390.6,309.1"/>
	<path class="st3" d="M409.6,316.9c0.1,1.5-0.5,2.7-1.6,3.7c-0.7,0.6-2,1.3-3.8,1.9c-2,0.7-3.4,1.3-3.9,1.6c0.7,0.5,1.8,0.7,3.5,0.6
		c0.4,0,0.9-0.2,1.7-0.5c0.7-0.3,1.3-0.4,1.7-0.5c0.2,0,0.5,0.2,0.8,0.7c0.3,0.5,0.5,0.8,0.5,1.1c0,0.6-0.6,1.2-1.7,1.5
		c-0.9,0.3-1.8,0.5-2.6,0.5c-1.8,0.1-3.3-0.3-4.5-1.1c-1.4-0.9-2-2.3-2.1-4c-0.1-2.3,1.1-4.4,3.6-6.3c2.2-1.7,4.5-2.7,6.9-2.8
		c0.5,0,1,0.4,1.3,1.4C409.4,315.5,409.6,316.2,409.6,316.9 M407.6,316.4l-0.9,0c-1,0.1-2.2,0.7-3.7,2c-1.4,1.2-2.3,2.3-2.8,3.2
		c1.4-0.7,2.8-1.3,4.2-2C406.1,318.8,407.1,317.7,407.6,316.4"/>
	<path class="st3" d="M424,323.1c0.1,1.3-0.6,2.4-2,3.3c-1.2,0.8-2.5,1.2-3.9,1.3c-0.8,0-2-0.4-3.4-1.3l-0.1-2.5
		c0.4,0,1,0.1,1.8,0.4c0.8,0.3,1.4,0.4,1.8,0.4c0.6,0,1.4-0.2,2.4-0.6c1.2-0.4,1.8-0.8,1.8-1.3c0-0.3-0.7-1-2.2-1.8
		c-0.5-0.3-1.4-0.5-2.7-0.7c-1.3-0.1-2.2-0.3-2.7-0.5c-0.8-0.4-1.3-1.1-1.3-2.1c-0.1-1.3,0.6-2.4,2-3.3c1.2-0.8,2.5-1.3,3.8-1.3
		c1.9-0.1,2.9,0.7,3,2.3c0,0.3-0.1,0.6-0.3,1c-0.2,0.3-0.5,0.5-0.8,0.5c-0.1,0-0.3-0.2-0.6-0.5c-0.3-0.3-0.6-0.5-0.9-0.5
		c-1,0-2,0.4-3,1.2c0.6,0.5,1.6,1.1,3,1.6s2.4,1.1,2.9,1.5C423.5,321,424,322,424,323.1"/>
	<path class="st3" d="M439.3,303.3v0.2c0,0.6-0.2,1.3-0.7,2c-0.4,0.6-0.7,1.2-1.1,1.9c-0.6,1.7-1.4,4.1-2.6,7c0,0.3,0.2,0.5,0.7,0.5
		c0.2,0,0.4-0.1,0.8-0.1c0.3-0.1,0.6-0.1,0.7-0.1c1.4-0.1,2.1,0.8,2.3,2.5c-0.3,0.1-1.3,0.3-3,0.6c-1.4,0.2-2.3,0.5-2.8,0.8
		c-0.4,0.2-0.7,0.9-1,1.9c-0.4,1.5-0.6,2.5-0.6,2.8c0,0.3,0.1,0.7,0.4,1.2c0.3,0.5,0.4,0.9,0.4,1.2c0,0.2-0.2,0.4-0.5,0.7
		c-0.3,0.3-0.6,0.4-0.8,0.4c-0.9,0-1.4-1.3-1.5-4c-0.1-1.5,0-2.5,0.3-3c-0.2-0.1-0.4-0.1-0.7-0.1c-0.3,0-0.8,0.1-1.4,0.3
		c-0.6,0.2-1,0.3-1.3,0.3c-0.5,0-0.9-0.1-1.4-0.3l-0.1-1.9c1.6-1,3.1-1.6,4.6-1.9c0.5-0.1,0.9-0.1,1-0.1c0.4-0.1,0.7-0.2,0.9-0.4
		c0.5-0.6,1.2-2,2-4.4c1.1-3.4,1.8-5.4,2.1-6c0.8-2,1.7-3,2.5-3.1C439,302.1,439.2,302.5,439.3,303.3"/>
</g>
<g>
	<path class="st3" d="M453.5,315.3c0,1.5-0.5,2.7-1.6,3.7c-0.7,0.6-2,1.3-3.8,1.9c-2,0.7-3.4,1.3-3.9,1.6c0.7,0.5,1.8,0.7,3.5,0.6
		c0.4,0,0.9-0.2,1.7-0.5c0.7-0.3,1.3-0.4,1.7-0.5c0.2,0,0.5,0.2,0.8,0.7c0.3,0.5,0.5,0.8,0.5,1.1c0,0.6-0.6,1.2-1.7,1.5
		c-0.9,0.3-1.8,0.5-2.6,0.5c-1.8,0.1-3.3-0.3-4.5-1.1c-1.3-0.9-2-2.3-2.1-4c-0.1-2.3,1.1-4.4,3.5-6.3c2.2-1.7,4.5-2.7,6.9-2.8
		c0.5,0,1,0.4,1.3,1.4C453.3,314,453.4,314.7,453.5,315.3 M451.5,314.9l-0.9,0c-1,0-2.2,0.7-3.7,2c-1.4,1.2-2.3,2.3-2.8,3.2
		c1.4-0.7,2.8-1.3,4.2-2C450,317.3,451,316.2,451.5,314.9"/>
	<path class="st3" d="M458.4,324.8c0,0.9-0.4,1.4-1.2,1.4c-0.6,0-1.1-0.2-1.4-0.7c-0.4-0.5-0.6-1.1-0.6-1.7c0-0.1,0-0.3,0.1-0.5
		c0.1-0.2,0.1-0.4,0.1-0.5c0.1,0,0.2-0.1,0.4-0.1c0.2-0.1,0.3-0.1,0.4-0.1c0.3,0,0.7,0.3,1.3,0.9C458.1,324,458.4,324.5,458.4,324.8
		 M468.4,304.6c0,0.3-1,1.9-2.9,4.6l-3.7,5l-1.5,2.7c-0.6,1.1-1.3,1.9-2,2.3l-0.7,0c-0.2-0.2-0.3-0.4-0.3-0.8c0-1.1,1.4-4,4.2-8.7
		c2.8-4.7,4.6-7,5.4-7.1c0.2,0,0.5,0.2,0.9,0.7C468.2,304,468.4,304.4,468.4,304.6"/>
</g>
</svg>
