<?xml version="1.0" encoding="UTF-8" standalone="no"?>
<!-- Created with Inkscape (http://www.inkscape.org/) -->

<svg
   width="12.7mm"
   height="12.699997mm"
   viewBox="0 0 12.7 12.699997"
   version="1.1"
   id="svg1"
   sodipodi:docname="logo-mini.svg"
   inkscape:version="1.3.2 (091e20e, 2023-11-25, custom)"
   xmlns:inkscape="http://www.inkscape.org/namespaces/inkscape"
   xmlns:sodipodi="http://sodipodi.sourceforge.net/DTD/sodipodi-0.dtd"
   xmlns:xlink="http://www.w3.org/1999/xlink"
   xmlns="http://www.w3.org/2000/svg"
   xmlns:svg="http://www.w3.org/2000/svg">
  <sodipodi:namedview
     id="namedview1"
     pagecolor="#ffffff"
     bordercolor="#000000"
     borderopacity="0.25"
     inkscape:showpageshadow="2"
     inkscape:pageopacity="0.0"
     inkscape:pagecheckerboard="0"
     inkscape:deskcolor="#d1d1d1"
     inkscape:document-units="mm"
     inkscape:zoom="1.0242632"
     inkscape:cx="203.0728"
     inkscape:cy="-75.664144"
     inkscape:window-width="1920"
     inkscape:window-height="1009"
     inkscape:window-x="-8"
     inkscape:window-y="-8"
     inkscape:window-maximized="1"
     inkscape:current-layer="layer1" />
  <defs
     id="defs1">
    <linearGradient
       inkscape:collect="always"
       xlink:href="#linearGradient17"
       id="linearGradient18"
       x1="732.96252"
       y1="146.84538"
       x2="738.1604"
       y2="358.5921"
       gradientUnits="userSpaceOnUse"
       gradientTransform="matrix(0.05082617,0,0,0.05944691,15.574899,79.354074)" />
    <linearGradient
       id="linearGradient17"
       inkscape:collect="always">
      <stop
         style="stop-color:#26a65b;stop-opacity:1;"
         offset="0"
         id="stop17" />
      <stop
         style="stop-color:#262626;stop-opacity:1;"
         offset="1"
         id="stop18" />
    </linearGradient>
  </defs>
  <g
     inkscape:label="Warstwa 1"
     inkscape:groupmode="layer"
     id="layer1"
     transform="translate(-46.827058,-88.145513)">
    <path
       style="fill:url(#linearGradient18);fill-opacity:1;fill-rule:nonzero;stroke:none;stroke-width:0.013504;stroke-dasharray:none;stroke-dashoffset:0;stroke-opacity:1"
       d="m 52.228227,100.7976 c -0.05591,-0.0261 -0.216011,-0.0678 -0.355783,-0.0927 l -0.254131,-0.0453 0.199933,-0.0825 c 0.438166,-0.18088 0.537047,-0.47663 0.537047,-1.60631 0,-0.771895 -0.0029,-0.792807 -0.123675,-0.885349 -0.09161,-0.07021 -0.187142,-0.08495 -0.368489,-0.05684 -0.47203,0.07314 -0.907249,0.219102 -1.091703,0.366133 -0.159045,0.12678 -0.242262,0.148047 -0.571583,0.146032 -0.341886,-0.002 -0.423057,0.02058 -0.718392,0.200633 -0.234353,0.142869 -0.396224,0.20147 -0.546594,0.197879 -0.1175,-0.0028 -0.257813,0.0053 -0.311807,0.01781 -0.06582,0.01537 -0.124282,-0.03043 -0.177409,-0.139 -0.07221,-0.147563 -0.07185,-0.170549 0.004,-0.259324 0.06285,-0.07351 0.07279,-0.140192 0.04051,-0.271815 -0.03712,-0.151363 -0.02701,-0.181426 0.07649,-0.227442 0.06559,-0.02917 0.134882,-0.08261 0.153981,-0.118754 0.05263,-0.09959 -0.07213,-0.23885 -0.213988,-0.23885 -0.07552,0 -0.185406,-0.07455 -0.274721,-0.186384 -0.145958,-0.182746 -0.155385,-0.1856 -0.483675,-0.146259 -0.370479,0.0444 -0.577253,-0.04812 -0.577253,-0.258278 0,-0.120025 0.266397,-0.261893 0.615643,-0.327869 0.100992,-0.01908 0.224613,-0.08767 0.274715,-0.152416 0.0501,-0.06476 0.154676,-0.117734 0.232388,-0.117734 0.230069,0 0.402039,-0.102376 0.402039,-0.239352 0,-0.177954 -0.306521,-0.311467 -0.739838,-0.322256 -0.548237,-0.01364 -0.835772,-0.256805 -0.835772,-0.706778 0,-0.176776 -0.02229,-0.215245 -0.156448,-0.269947 -0.200359,-0.0817 -0.181881,-0.206347 0.06524,-0.440111 0.185211,-0.1752 0.193241,-0.177026 0.483932,-0.110142 0.340528,0.07835 1.23901,0.02606 1.295426,-0.07539 0.01996,-0.03591 0.172197,-0.06529 0.338294,-0.06529 0.261888,0 0.327944,-0.02449 0.497376,-0.184411 0.107459,-0.101428 0.20269,-0.241871 0.211623,-0.312096 0.01449,-0.113884 -0.0075,-0.127638 -0.203306,-0.127269 -0.120751,0 -0.413956,0.05515 -0.651569,0.122032 -0.237613,0.06689 -0.557817,0.11689 -0.711566,0.111101 -0.153749,-0.0057 -0.346001,0.01018 -0.427225,0.03536 -0.114849,0.03567 -0.16287,0.02157 -0.21601,-0.06344 -0.09041,-0.144617 -0.08738,-0.529105 0.0049,-0.618662 0.04027,-0.03909 0.06195,-0.105417 0.04818,-0.1474 -0.01457,-0.0444 0.03881,-0.107265 0.127609,-0.150283 0.08396,-0.04068 0.187263,-0.13574 0.229567,-0.211255 0.0423,-0.07552 0.157779,-0.168514 0.25661,-0.206663 0.117732,-0.04545 0.179691,-0.106482 0.179691,-0.17703 0,-0.07648 0.05281,-0.119256 0.18235,-0.147678 0.367998,-0.08075 0.783348,-0.433281 0.783348,-0.664877 0,-0.04463 0.0085,-0.08116 0.01895,-0.08116 0.07427,0 0.542059,0.281412 0.661503,0.397943 0.17635,0.17205 0.33715,0.158662 0.419352,-0.03491 0.08864,-0.208735 0.04553,-0.273332 -0.302647,-0.453548 -0.172871,-0.08947 -0.352897,-0.201964 -0.400054,-0.24997 -0.04716,-0.048 -0.109173,-0.07035 -0.137809,-0.04965 -0.02864,0.0207 -0.213588,-0.008 -0.411005,-0.0637 -0.31383,-0.0886 -0.362468,-0.120609 -0.387011,-0.254739 -0.01544,-0.08437 -0.07059,-0.279851 -0.122564,-0.434392 l -0.09449,-0.280986 0.13584,-0.07615 c 0.07471,-0.04188 0.1443,-0.129449 0.154638,-0.194591 0.03766,-0.237289 0.11519,-0.283334 0.412998,-0.245276 0.154557,0.01975 0.340207,0.05197 0.412553,0.0716 0.106965,0.02902 0.163935,-0.0057 0.304956,-0.186033 0.33703,-0.430906 0.360964,-0.453285 0.454287,-0.424742 0.05987,0.01832 0.140704,-0.03324 0.224411,-0.14312 0.07196,-0.09446 0.182747,-0.171744 0.246196,-0.171744 0.06345,0 0.160479,-0.03649 0.21562,-0.0811 0.05514,-0.0446 0.27615,-0.09399 0.491132,-0.109744 0.391196,-0.02867 0.688073,-0.1666 0.623123,-0.289515 -0.03532,-0.06684 0.274131,-0.04471 0.372878,0.02667 0.03392,0.02452 0.08368,0.02867 0.11058,0.0092 0.0269,-0.01945 0.15524,-0.03785 0.285197,-0.0409 0.242946,-0.0057 0.364563,0.09277 0.273338,0.221337 -0.140013,0.19732 0.27037,0.198031 0.426697,7.4e-4 0.112573,-0.142068 0.118489,-0.142936 0.366064,-0.0537 0.138404,0.04988 0.280232,0.100656 0.315176,0.112808 0.11313,0.03937 0.06754,0.118768 -0.101653,0.177026 -0.214856,0.07398 -0.223211,0.260537 -0.01685,0.376218 0.112432,0.06303 0.170421,0.06702 0.239581,0.0165 0.147409,-0.107674 0.545499,-0.01696 0.636213,0.144966 0.179368,0.320182 0.03099,0.482275 -0.452335,0.494138 -0.200494,0.0049 -0.241424,0.02485 -0.241424,0.117541 0,0.177394 0.102474,0.231098 0.482848,0.253051 0.31108,0.01795 0.379704,0.002 0.546162,-0.127481 0.104707,-0.0814 0.20172,-0.188446 0.215587,-0.23786 0.01387,-0.04942 0.134041,-0.120645 0.267056,-0.158287 0.133019,-0.03764 0.282135,-0.08713 0.331372,-0.109979 0.06858,-0.03181 0.08211,-0.01895 0.05785,0.05502 -0.0406,0.12375 0.06497,0.273372 0.192881,0.273372 0.0545,0 0.199549,-0.06887 0.322341,-0.153029 0.25693,-0.176109 0.452971,-0.174232 0.460786,0.0044 0.0029,0.06539 0.02246,0.182424 0.04356,0.260071 0.0431,0.158633 -0.0296,0.242835 -0.210946,0.244318 -0.06125,4.71e-4 -0.125621,0.0279 -0.143052,0.06089 -0.06627,0.125421 0.03646,0.280693 0.330856,0.500055 0.167613,0.124893 0.30475,0.246466 0.30475,0.270162 0,0.0237 -0.04484,0.09055 -0.09966,0.148566 -0.07805,0.08261 -0.14769,0.09705 -0.321206,0.06662 -0.154807,-0.02715 -0.266418,-0.01146 -0.370486,0.05198 -0.08192,0.04997 -0.175491,0.09101 -0.20795,0.09121 -0.06811,4.27e-4 -0.322181,0.336678 -0.322181,0.426389 0,0.03312 -0.05146,0.109417 -0.11436,0.169559 -0.153269,0.146545 -0.08684,0.20801 0.310591,0.287382 0.40033,0.07995 0.464509,0.140211 0.464509,0.436153 0,0.207461 0.01172,0.230162 0.101653,0.196778 0.05831,-0.02165 0.101649,-0.01064 0.101649,0.02572 0,0.141692 0.133517,0.04924 0.23055,-0.159635 0.08141,-0.175239 0.129867,-0.219251 0.227152,-0.206295 0.379003,0.05047 1.117912,0.664008 1.117912,0.92823 0,0.06986 0.04574,0.273399 0.101651,0.452304 0.136889,0.438029 0.130632,0.492945 -0.08092,0.710201 -0.179142,0.183963 -0.191012,0.187156 -0.631012,0.169637 -0.24664,-0.0098 -0.465661,0.0022 -0.486712,0.02682 -0.02105,0.02457 -0.0065,0.114202 0.03242,0.199178 0.0637,0.1392 0.06077,0.163193 -0.02956,0.242246 -0.09183,0.08035 -0.08092,0.08446 0.129621,0.04875 0.190966,-0.0324 0.24531,-0.01908 0.320974,0.07873 0.05931,0.07664 0.0722,0.131371 0.03695,0.15685 -0.08871,0.06413 -0.06154,0.194326 0.04752,0.227683 0.139949,0.04281 0.127432,0.198065 -0.02541,0.3152 -0.265959,0.203826 -0.06002,0.274532 0.33037,0.113428 0.306322,-0.126407 0.368945,-0.114235 0.566391,0.110037 0.236946,0.269146 0.380313,0.870573 0.258755,1.085467 -0.07329,0.129557 -0.366237,0.260936 -0.581198,0.260646 -0.120193,0 -0.327476,0.04537 -0.460626,0.101194 -0.24133,0.10116 -0.242945,0.100984 -0.51334,-0.05915 -0.320201,-0.189635 -0.369046,-0.194201 -0.553753,-0.05174 -0.14578,0.112434 -0.137607,0.188334 0.02028,0.188334 0.09099,0 0.246964,0.273896 0.246964,0.433683 0,0.152309 -0.175128,0.268375 -0.468622,0.310574 -0.159901,0.02299 -0.317085,0.07895 -0.349298,0.124354 -0.0795,0.112048 -0.371345,0.104083 -0.569105,-0.01552 -0.08918,-0.05394 -0.28739,-0.10075 -0.440462,-0.104036 -0.2555,-0.0055 -0.283894,0.0075 -0.346363,0.157522 -0.04339,0.104247 -0.108479,0.16362 -0.179635,0.16387 -0.06137,0 -0.180199,0.05353 -0.264062,0.118503 -0.02649,0.240349 -0.897562,0.24534 -1.171245,-0.100283 -0.0479,-0.0605 -0.122214,-0.07678 -0.205228,-0.05242 -0.116747,0.03427 -0.123228,0.02671 -0.07239,-0.0844 0.07572,-0.165481 0.02095,-0.246794 -0.135322,-0.200919 -0.08141,0.0239 -0.14433,0.0097 -0.169646,-0.03818 -0.0593,-0.112223 -0.196482,-0.02637 -0.259789,0.162578 -0.06116,0.182552 -0.02172,1.290698 0.05426,1.524436 0.05319,0.16364 0.336216,0.33479 0.553611,0.33479 0.08498,0 0.168638,0.0268 0.185915,0.0594 0.01903,0.036 -0.0549,0.0602 -0.187599,0.0614 -0.120456,0.001 -0.344804,0.0537 -0.498554,0.11695 -0.286666,0.11794 -0.708713,0.14827 -0.889459,0.0639 z m 1.53896,-2.78571 c 0.113054,-0.173277 0.05291,-0.278796 -0.169847,-0.297979 -0.217509,-0.01874 -0.503958,0.170071 -0.465137,0.306594 0.04874,0.171402 0.521719,0.164994 0.634984,-0.0087 z m -2.28574,-0.377227 c 0.131184,-0.03697 0.27201,-0.103849 0.312943,-0.148618 0.06373,-0.06968 0.04047,-0.08138 -0.161877,-0.08138 -0.290304,0 -0.497049,0.08593 -0.497049,0.206596 0,0.108446 0.03572,0.110867 0.345983,0.0234 z"
       id="path14"
       sodipodi:nodetypes="cscsssccccccscscssccsscsscscsssscscscccssssssssssssssssscssssssssssssscsssssssssssssssssssscsssssscsssssssssssscsssscscsssccccssssccsccsssssssssscccccccscsss" />
  </g>
</svg>
