<?xml version="1.0" encoding="UTF-8" standalone="no"?>
<!-- Created with Inkscape (http://www.inkscape.org/) -->

<svg
   version="1.1"
   id="svg1"
   width="408.8017"
   height="357.75473"
   viewBox="0 0 408.8017 357.75473"
   sodipodi:docname="logo-big2.svg"
   inkscape:version="1.3.2 (091e20e, 2023-11-25, custom)"
   xmlns:inkscape="http://www.inkscape.org/namespaces/inkscape"
   xmlns:sodipodi="http://sodipodi.sourceforge.net/DTD/sodipodi-0.dtd"
   xmlns:xlink="http://www.w3.org/1999/xlink"
   xmlns="http://www.w3.org/2000/svg"
   xmlns:svg="http://www.w3.org/2000/svg">
  <defs
     id="defs1">
    <linearGradient
       id="linearGradient17"
       inkscape:collect="always">
      <stop
         style="stop-color:#26a65b;stop-opacity:1;"
         offset="0"
         id="stop17" />
      <stop
         style="stop-color:#262626;stop-opacity:1;"
         offset="1"
         id="stop18" />
    </linearGradient>
    <linearGradient
       inkscape:collect="always"
       xlink:href="#linearGradient17"
       id="linearGradient18"
       x1="732.96252"
       y1="146.84538"
       x2="738.1604"
       y2="358.5921"
       gradientUnits="userSpaceOnUse" />
  </defs>
  <sodipodi:namedview
     id="namedview1"
     pagecolor="#ffffff"
     bordercolor="#000000"
     borderopacity="0.25"
     inkscape:showpageshadow="2"
     inkscape:pageopacity="0.0"
     inkscape:pagecheckerboard="0"
     inkscape:deskcolor="#d1d1d1"
     showgrid="false"
     inkscape:zoom="1.7615385"
     inkscape:cx="137.9476"
     inkscape:cy="225.08733"
     inkscape:window-width="1920"
     inkscape:window-height="1009"
     inkscape:window-x="-8"
     inkscape:window-y="-8"
     inkscape:window-maximized="1"
     inkscape:current-layer="g1"
     inkscape:clip-to-page="true" />
  <g
     inkscape:groupmode="layer"
     inkscape:label="Image"
     id="g1"
     transform="translate(-534.81746,-147.88719)">
    <path
       style="fill:url(#linearGradient18);fill-opacity:1;fill-rule:nonzero;stroke:none;stroke-width:0.245669;stroke-dasharray:none;stroke-dashoffset:0;stroke-opacity:1"
       d="m 721.15066,360.71713 c -1.1,-0.439 -4.25,-1.1408 -7,-1.5596 l -5,-0.7615 3.93368,-1.3883 c 8.62087,-3.0426 10.56632,-8.0176 10.56632,-27.0209 0,-12.9846 -0.0575,-13.3364 -2.43326,-14.8931 -1.80243,-1.181 -3.68203,-1.4289 -7.25,-0.9563 -9.28717,1.2303 -17.85004,3.6857 -21.47915,6.159 -3.1292,2.1327 -4.76648,2.4904 -11.24585,2.4565 -6.72658,-0.035 -8.32361,0.3462 -14.1343,3.375 -4.61085,2.4033 -7.79566,3.3891 -10.75416,3.3287 -2.3118,-0.047 -5.07246,0.088 -6.13479,0.2997 -1.29504,0.2586 -2.44523,-0.5119 -3.49049,-2.3382 -1.42076,-2.4823 -1.41371,-2.869 0.0795,-4.3623 1.23649,-1.2365 1.43203,-2.3583 0.79702,-4.5724 -0.73024,-2.5462 -0.53134,-3.0519 1.50487,-3.826 1.29048,-0.4907 2.65377,-1.3896 3.02955,-1.9976 1.03546,-1.6754 -1.41911,-4.0179 -4.21019,-4.0179 -1.48581,0 -3.64785,-1.2541 -5.40512,-3.1353 -2.87171,-3.0741 -3.05717,-3.1221 -9.51625,-2.4603 -7.28914,0.7468 -11.35739,-0.8095 -11.35739,-4.3447 0,-2.019 5.24131,-4.4055 12.11271,-5.51532 1.98699,-0.3209 4.41924,-1.4747 5.40499,-2.5639 0.98575,-1.0893 3.04323,-1.9805 4.57219,-1.9805 4.5266,0 7.91011,-1.7222 7.91011,-4.0263 0,-2.9935 -6.03078,-5.2394 -14.55625,-5.4209 -10.7865,-0.2296 -16.44375,-4.3199 -16.44375,-11.8892 0,-2.9737 -0.43864,-3.6208 -3.0781,-4.541 -3.94202,-1.3742 -3.57846,-3.4711 1.2836,-7.4034 3.64401,-2.9472 3.80201,-2.9779 9.5213,-1.8527 6.69987,1.3181 24.3774,0.4384 25.48739,-1.2683 0.3928,-0.604 3.38796,-1.0982 6.65591,-1.0982 5.1526,0 6.45225,-0.412 9.78581,-3.1021 2.11425,-1.7062 3.98789,-4.0687 4.16364,-5.25 0.28503,-1.9158 -0.14709,-2.1471 -4,-2.1409 -2.37575,0 -8.14455,0.9276 -12.81955,2.0528 -4.675,1.1252 -10.975,1.9662 -14,1.8689 -3.025,-0.097 -6.80752,0.1703 -8.40559,0.5947 -2.25966,0.6 -3.20447,0.3628 -4.25,-1.0671 -1.77884,-2.4327 -1.71908,-8.90045 0.0961,-10.40695 0.7923,-0.65756 1.21884,-1.77335 0.94785,-2.47953 -0.28661,-0.7469 0.76357,-1.80433 2.51069,-2.52801 1.65187,-0.68423 3.6844,-2.28339 4.51673,-3.55368 0.83233,-1.2703 3.10427,-2.83469 5.04875,-3.47643 2.31639,-0.76448 3.53542,-1.79128 3.53542,-2.97795 0,-1.28659 1.0391,-2.00609 3.58771,-2.48421 7.24032,-1.3583 15.41229,-7.28852 15.41229,-11.18438 0,-0.75083 0.16779,-1.36515 0.37288,-1.36515 1.46119,0 10.66496,4.73382 13.01502,6.69408 3.46969,2.89417 6.63339,2.66895 8.2507,-0.58734 1.74396,-3.51128 0.89588,-4.59791 -5.95454,-7.62945 -3.40124,-1.50516 -6.94321,-3.39738 -7.87105,-4.20493 -0.92784,-0.80755 -2.14795,-1.18339 -2.71136,-0.83518 -0.5634,0.3482 -4.20231,-0.13395 -8.08647,-1.07144 -6.17459,-1.49032 -7.13152,-2.02885 -7.61443,-4.28513 -0.30378,-1.41934 -1.38891,-4.7076 -2.41141,-7.30725 l -1.85909,-4.72665 2.67264,-1.28097 c 1.46996,-0.70453 2.83908,-2.17754 3.04249,-3.27335 0.74094,-3.99161 2.26636,-4.76617 8.12569,-4.12598 3.04091,0.33225 6.69353,0.87425 8.11693,1.20445 2.10454,0.48821 3.22541,-0.0964 6,-3.12941 6.63101,-7.24858 7.10194,-7.62504 8.93804,-7.14489 1.17795,0.30804 2.76836,-0.55917 4.41526,-2.40754 1.41577,-1.58896 3.59553,-2.88902 4.84391,-2.88902 1.24837,0 3.1574,-0.61388 4.24228,-1.36418 1.08488,-0.7503 5.43323,-1.58099 9.66299,-1.84599 7.69673,-0.48221 13.53775,-2.8025 12.25988,-4.87014 -0.69495,-1.12445 5.3935,-0.75225 7.33633,0.44849 0.66732,0.41242 1.64636,0.48222 2.17565,0.1551 0.52929,-0.32712 3.05434,-0.63675 5.61122,-0.68807 4.77997,-0.096 7.17274,1.56063 5.37791,3.72326 -2.75476,3.31928 5.31948,3.33123 8.39524,0.0124 2.21484,-2.38985 2.33122,-2.40445 7.20225,-0.90328 2.72307,0.8392 5.51354,1.69318 6.20104,1.89772 2.22585,0.66223 1.32881,1.99787 -2,2.97787 -4.22725,1.24449 -4.39163,4.38268 -0.33151,6.32864 2.21208,1.06022 3.35303,1.12743 4.71375,0.27764 2.90024,-1.81123 10.73262,-0.28537 12.51741,2.43856 3.52906,5.38603 0.60969,8.11272 -8.89965,8.31227 -3.94469,0.0828 -4.75,0.41801 -4.75,1.97724 0,2.98406 2.01619,3.88748 9.5,4.25677 6.12048,0.30201 7.47062,0.0326 10.74567,-2.14446 2.06012,-1.36942 3.96886,-3.16998 4.24165,-4.00123 0.27278,-0.83125 2.63723,-2.02945 5.25433,-2.66266 2.61709,-0.63322 5.55095,-1.46571 6.51969,-1.84998 1.34931,-0.53524 1.61555,-0.31876 1.13812,0.9254 -0.79882,2.0817 1.27821,4.5986 3.79491,4.5986 1.07222,0 3.92613,-1.15839 6.34204,-2.5742 5.05505,-2.96246 8.91216,-2.93089 9.06591,0.0742 0.0563,1.1 0.44194,3.06868 0.85702,4.37485 0.84799,2.66848 -0.58238,4.0849 -4.15033,4.10984 -1.20504,0.008 -2.47158,0.46934 -2.81454,1.02426 -1.30391,2.10978 0.71739,4.72174 6.50958,8.41178 3.29777,2.10092 5.99595,4.14598 5.99595,4.54458 0,0.39859 -0.88232,1.52321 -1.96072,2.49914 -1.53561,1.38971 -2.90579,1.6327 -6.3197,1.12075 -3.04581,-0.45674 -5.24177,-0.19332 -7.28929,0.87441 -1.61166,0.84044 -3.45279,1.53084 -4.0914,1.53423 -1.33996,0.007 -6.33889,5.66351 -6.33889,7.1726 0,0.55714 -1.0125,1.84067 -2.25,2.85229 -3.01556,2.46513 -1.70856,3.49909 6.11085,4.83426 7.87646,1.34492 9.13915,2.35859 9.13915,7.33685 0,3.48986 0.23071,3.87171 2,3.31016 1.14731,-0.36414 2,-0.1797 2,0.43262 0,2.38351 2.62692,0.82838 4.53601,-2.68532 1.60163,-2.94781 2.55514,-3.68819 4.46921,-3.47025 7.45684,0.84906 21.99478,11.16977 21.99478,15.61443 0,1.17522 0.9,4.59904 2,7.60854 2.69326,7.3684 2.57015,8.2922 -1.59218,11.9468 -3.5246,3.0946 -3.75812,3.1483 -12.41511,2.8536 -4.85261,-0.1652 -9.16181,0.038 -9.576,0.4511 -0.41418,0.4133 -0.12713,1.9211 0.63789,3.3505 1.25319,2.3416 1.19557,2.7452 -0.58183,4.075 -1.80675,1.3517 -1.59212,1.4208 2.55028,0.82 3.75727,-0.545 4.82647,-0.3208 6.31515,1.3242 1.16692,1.2894 1.42051,2.2099 0.72694,2.6385 -1.74538,1.0787 -1.21078,3.2689 0.93486,3.83 2.75351,0.7201 2.50723,3.3318 -0.5,5.3022 -5.23272,3.4287 -1.18086,4.6181 6.5,1.9081 6.02685,-2.1264 7.25895,-1.9217 11.14369,1.8511 4.66187,4.5275 7.48262,14.64452 5.09099,18.25942 -1.4419,2.1794 -7.20568,4.3894 -11.43502,4.3845 -2.36482,0 -6.44307,0.7633 -9.06279,1.7023 -4.74812,1.7018 -4.77993,1.6987 -10.09991,-0.995 -6.29992,-3.19 -7.26097,-3.2668 -10.89502,-0.8704 -2.86824,1.8913 -2.70742,3.1681 0.39904,3.1681 1.79029,0 4.85902,4.6074 4.85902,7.2953 0,2.5621 -3.44567,4.5145 -9.22008,5.2244 -3.14605,0.3868 -6.23865,1.3281 -6.87245,2.0918 -1.56424,1.8848 -7.30614,1.7508 -11.19705,-0.2613 -1.75464,-0.9073 -5.65437,-1.6948 -8.66607,-1.75 -5.02695,-0.092 -5.58555,0.1252 -6.81465,2.6498 -0.85373,1.7536 -2.13431,2.7524 -3.53427,2.7566 -1.20749,0 -3.54543,0.9006 -5.19543,1.9934 -0.52112,4.04309 -17.65944,4.12706 -23.04412,-1.687 -0.9425,-1.01766 -2.40458,-1.2917 -4.03786,-0.8818 -2.29698,0.5765 -2.42449,0.4494 -1.4242,-1.4197 1.48979,-2.7837 0.41227,-4.1515 -2.66244,-3.3798 -1.60175,0.402 -2.8397,0.1638 -3.33779,-0.6421 -1.16674,-1.8878 -3.86574,-0.4437 -5.1113,2.7348 -1.20341,3.0709 -0.42736,21.7118 1.06761,25.6438 1.04654,2.7526 6.61502,5.6317 10.89221,5.6317 1.67192,0 3.31797,0.45 3.65789,1 0.37448,0.606 -1.08004,1.0129 -3.69099,1.0327 -2.36996,0.018 -6.78401,0.9033 -9.80901,1.9673 -5.64013,1.984 -13.94385,2.4942 -17.5,1.0752 z m 30.2789,-46.8606 c 2.22432,-2.9148 1.041,-4.6898 -3.34174,-5.0125 -4.27946,-0.3152 -9.91531,2.8609 -9.15152,5.1574 0.95901,2.8833 10.26475,2.7755 12.49326,-0.1449 z m -44.97172,-6.3456 c 2.58105,-0.622 5.35175,-1.747 6.1571,-2.5 1.25393,-1.1723 0.79639,-1.369 -3.1849,-1.369 -5.71171,0 -9.77938,1.4455 -9.77938,3.4753 0,1.8243 0.70271,1.8649 6.80718,0.3937 z"
       id="path14"
       sodipodi:nodetypes="cscsssccccccscscssccsscsscscsssscscscccssssssssssssssssscssssssssssssscsssssssssssssssssssscsssssscsssssssssssscsssscscsssccccssssccsccsssssssssscccccccscsss" />
    <path
       id="path13"
       style="fill:#825e5e;fill-opacity:1;fill-rule:nonzero;stroke:#368445;stroke-width:0.245669;stroke-dasharray:none;stroke-dashoffset:0;stroke-opacity:1"
       d="m 683.08991,393.45053 c -1.53638,-4.8407 9.10912,-9.3895 11.50355,-4.9155 0.77752,1.4528 0.53624,2.4995 -1.0374,4.5 -2.7635,3.5132 -9.39936,3.7767 -10.46615,0.4155 z m -146.47517,55.1554 c -1.72932,-1.7294 -2.0685,-2.9333 -1.61453,-5.7307 0.68198,-4.2026 5.8591,-15.1745 11.43457,-24.2334 l 4.00053,-6.5 -7.84571,-0.2897 c -6.48419,-0.2394 -7.746,-0.5495 -7.27115,-1.787 1.09852,-2.8627 6.55758,-4.7828 13.35396,-4.6971 l 6.52175,0.082 4.70611,-6.6542 c 12.66507,-17.908 27.56485,-34.1543 31.32338,-34.1543 1.21299,0 3.20768,0.8116 4.43265,1.8035 l 2.22721,1.8035 -2.47711,4.9465 c -5.88774,11.7572 -12.59019,37.435 -13.44511,51.5097 -0.63862,10.514 0.31414,13.9368 3.87939,13.9368 5.71232,0 19.39501,-22.7534 19.03159,-31.6483 -0.20972,-5.1329 3.08708,-10.1703 5.39991,-8.2509 0.95729,0.7945 1.22071,2.2232 0.81179,4.403 -0.54349,2.897 -0.24058,3.4522 2.96427,5.4329 8.06051,4.9817 9.33722,10.0018 5.10242,20.0633 -2.67715,6.3606 -3.11773,9.5002 -1.4756,10.5151 2.26788,1.4016 7.37255,-0.9714 12.6435,-5.8776 5.08247,-4.7307 5.77769,-5.9128 7.99524,-13.5939 2.1493,-7.4447 2.25088,-8.5122 0.8828,-9.2778 -2.39092,-1.3381 -1.89308,-3.5451 0.70406,-3.1213 1.97799,0.3227 2.90004,-0.9745 7.62712,-10.7302 5.36348,-11.0692 11.8268,-19.5074 14.31551,-18.6896 3.2099,1.0547 1.9095,5.8691 -4.62452,17.1212 -3.61246,6.221 -6.56811,11.6565 -6.56811,12.079 0,0.4225 4.27535,0.6122 9.50077,0.4216 7.11906,-0.2596 9.50058,-0.033 9.5,0.9035 -9.9e-4,1.6052 1.04396,1.402 -10.91207,2.1225 l -10.4113,0.6275 -2.28098,6.7737 c -2.84323,8.4433 -3.80052,14.61 -2.90261,18.6981 2.40167,10.9348 20.06617,1.8467 25.4351,-13.0859 4.02122,-11.1842 8.8086,-17.8859 12.77679,-17.8859 1.29639,0 2.59176,0.6116 2.8786,1.3591 0.28685,0.7475 -1.97728,6.1454 -5.03138,11.9953 -7.60419,14.5654 -7.56605,20.6456 0.12952,20.6456 2.5086,0 4.34746,-1.0205 7.8,-4.3286 2.53482,-2.4288 4.51756,-5.2458 4.51756,-6.4184 0,-1.2853 1.26955,-2.8745 3.2977,-4.128 5.65006,-3.4919 13.7023,-14.9052 13.7023,-19.4216 0,-2.8049 2.32325,-5.7034 4.57143,-5.7034 1.00841,0 1.42857,1.2195 1.42857,4.1466 0,2.2806 1.35,8.361 3,13.5119 1.65,5.151 3,11.3966 3,13.8791 v 4.5137 l 2.75,-1.4364 c 2.97566,-1.5542 7.3176,-5.9101 9.08574,-9.1149 1.62918,-2.9529 1.40358,0.1393 -0.24073,3.2996 -1.93936,3.7274 -5.44698,6.8228 -9.78588,8.6357 -2.01497,0.8419 -3.92622,2.3582 -4.24724,3.3697 -0.9554,3.0102 -7.7455,6.1954 -13.19805,6.1913 -5.93425,-0.01 -10.53128,-2.5721 -12.31485,-6.878 -1.52885,-3.691 -2.11905,-3.8152 -4.64401,-0.9771 -2.52914,2.8428 -9.14696,5.8095 -13.02012,5.8368 -4.07062,0.029 -7.96255,-3.1165 -8.75415,-7.0745 l -0.63151,-3.1575 -4.38524,4.0422 c -5.96611,5.4993 -10.06359,7.4346 -15.92857,7.5231 -4.21572,0.064 -5.30998,-0.3361 -7.32098,-2.674 -1.52507,-1.773 -2.36441,-4.0083 -2.36441,-6.2967 v -3.5478 l -3.52781,3.0975 c -7.7039,6.7641 -18.19105,9.3544 -21.69892,5.3597 -3.00198,-3.4187 -2.97026,-5.9249 0.17437,-13.7782 3.77813,-9.4355 3.85686,-12.3836 0.41518,-15.5475 -2.14338,-1.9704 -2.73626,-2.1434 -3.16634,-0.9243 -2.26847,6.4303 -12.09335,23.8969 -15.17572,26.9792 -7.79407,7.7941 -15.5118,7.5388 -18.62618,-0.6161 -1.35254,-3.5415 -1.56845,-6.3084 -1.07657,-13.7965 0.70082,-10.669 1.45224,-9.7871 -9.45197,-11.0932 l -5.63396,-0.6749 -9.53939,19.1774 -9.53938,19.1774 z m 173.20018,-8.1284 2.16427,-2.1643 -4.91427,-2.1904 c -2.70284,-1.2048 -5.77151,-3.1559 -6.81925,-4.3358 -2.75891,-3.1068 -3.59501,-2.6649 -3.59501,1.9002 0,7.6611 8.11016,11.8444 13.16426,6.7903 z m 2.83574,-9.3073 c 0,-4.1088 -3.04575,-18.5409 -3.90425,-18.5001 -0.32766,0.016 -2.06879,2.3781 -3.86918,5.25 -1.80038,2.8719 -3.80646,5.9828 -4.45796,6.9131 -1.38023,1.9709 0.67981,4.8277 5.73139,7.948 4.71341,2.9115 6.5,2.4687 6.5,-1.611 z m -134.48935,-33.5283 c 1.81975,-6.325 4.24929,-13.8792 5.39899,-16.787 3.00434,-7.5987 2.54799,-8.3095 -2.06283,-3.213 -5.80972,6.4217 -20.12581,28.1283 -19.15893,29.0495 0.94993,0.9051 9.1929,2.8279 11.16313,2.604 0.82369,-0.094 2.64241,-4.6421 4.65964,-11.6535 z m 215.59676,44.8849 c -7.07611,-7.5953 0.0957,-34.0297 16.87432,-62.1967 7.45071,-12.5078 13.18393,-18.7043 15.78683,-17.0624 4.94849,3.1214 3.86046,13.0312 -2.95978,26.9578 -5.81063,11.865 -11.11277,19.7037 -17.97655,26.5766 -5.15458,5.1614 -5.73105,6.1818 -6.36664,11.2689 -2.19864,17.5973 11.35748,15.0624 19.41739,-3.6309 1.01927,-2.364 3.09895,-5.5357 4.62149,-7.0482 2.64081,-2.6234 3.37525,-2.9126 7.99553,-3.1481 1.26197,-0.064 2.11615,-0.9188 2.31478,-2.3155 0.17313,-1.2175 1.59117,-3.58 3.15121,-5.25 2.3511,-2.5169 3.61088,-3.0364 7.36264,-3.0364 3.74493,0 4.90079,0.4747 6.69631,2.75 2.84386,3.6038 2.29445,8.8333 -1.86095,17.7132 -3.46768,7.4103 -2.90656,8.626 3.04477,6.597 4.69716,-1.6014 6.06611,-2.8993 9.23826,-8.7583 2.89672,-5.3503 7.87178,-8.8843 10.88128,-7.7294 1.07417,0.4122 2.08483,-0.718 3.49717,-3.9109 2.29518,-5.1886 4.49615,-6.6616 9.9538,-6.6616 8.30873,0 10.12592,8.1946 4.48859,20.2413 -2.30095,4.917 -2.76284,6.7385 -1.80221,7.1071 2.06927,0.7941 8.49857,-1.008 10.73717,-3.0096 5.11966,-4.5775 10.87906,-17.6725 10.08438,-22.9285 -0.34479,-2.2804 0.16829,-3.8283 1.95904,-5.9102 3.17204,-3.6877 5.11661,-2.6073 4.27483,2.3751 -0.58854,3.4836 -0.38584,3.8351 3.98957,6.9192 7.86689,5.5451 8.42616,9.1405 3.51657,22.6076 -1.886,5.1734 -1.97147,6.0823 -0.69224,7.3615 3.05442,3.0544 12.90813,-3.1594 19.44697,-12.2635 1.46906,-2.0454 2.16478,-2.4782 2.18638,-1.36 0.044,2.2774 -8.08623,13.0957 -11.86265,15.7847 -4.55624,3.2444 -8.84655,4.2221 -13.28352,3.0274 -6.46616,-1.7412 -7.43623,-6.635 -3.32215,-16.7598 3.33505,-8.2077 3.28732,-12.4278 -0.17132,-15.1484 -1.46923,-1.1557 -2.97431,-1.7509 -3.34464,-1.3226 -0.37032,0.4283 -1.71592,3.6388 -2.99022,7.1346 -1.5101,4.1426 -3.96378,8.1472 -7.04624,11.5 l -4.72933,5.1441 -6.66028,0.097 c -6.20546,0.09 -6.91288,0.3389 -10.35913,3.6398 -4.77869,4.5771 -9.20598,6.7632 -13.69693,6.7632 -4.92941,0 -8.50191,-3.854 -8.50191,-9.1717 v -3.8797 l -3.08615,1.5959 c -1.77298,0.9169 -4.90709,1.484 -7.36564,1.3328 -3.71051,-0.2282 -4.86239,0.2433 -8.66385,3.5466 -8.20368,7.1286 -16.07314,8.6941 -19.81178,3.9412 -1.13992,-1.4492 -2.07258,-3.7565 -2.07258,-5.1273 0,-2.4108 -0.14778,-2.3563 -4.50768,1.6625 -7.10349,6.5477 -14.5029,8.1514 -18.38491,3.9846 z m 40.99707,-6.6413 4.02704,-3.7564 -2.49029,-4.4936 c -1.36967,-2.4715 -2.7986,-6.1772 -3.17542,-8.2349 -0.37681,-2.0577 -1.09433,-3.4883 -1.59448,-3.1792 -1.93435,1.1955 -6.01175,10.8104 -6.56487,15.4807 -1.02516,8.6558 3.11036,10.4216 9.79802,4.1834 z m 39.92271,1.2363 c 5.08448,-3.7512 5.39325,-4.8925 2.63057,-9.7233 -1.33884,-2.3412 -2.74997,-6.0509 -3.13585,-8.244 -0.67077,-3.8121 -0.76849,-3.9 -2.22369,-2 -2.91535,3.8066 -6.29822,12.5701 -6.29822,16.3159 0,6.5343 3.30674,7.8718 9.02719,3.6514 z m -28.98552,-15.7299 c 3.22457,-6.8161 3.77513,-11.8272 1.50632,-13.7102 -3.51501,-2.9172 -8.54799,2.8031 -8.54799,9.7152 0,4.534 1.75053,10.245 3.14029,10.245 0.51955,0 2.27517,-2.8125 3.90138,-6.25 z m 41.04049,0.8766 c 2.28271,-5.0269 2.52078,-12.8813 0.44271,-14.606 -1.20799,-1.0025 -2.0229,-0.6764 -4.5,1.8007 -3.55951,3.5595 -4.06057,8.9389 -1.36008,14.6019 1.95333,4.0962 2.88118,3.7885 5.41737,-1.7966 z m -78.30684,-14.3766 c 8.64014,-11.7473 18.76745,-33.0723 16.67708,-35.1167 -1.81925,-1.7794 -13.60922,18.2765 -19.86318,33.7891 -4.17491,10.3556 -3.62314,10.5855 3.1861,1.3276 z m -59.4519,40.1643 c -2.34576,-2.3457 -2.53696,-3.1228 -2.0607,-8.3751 0.42925,-4.7338 5.77609,-22.3269 9.24383,-30.4156 0.75038,-1.7503 0.35488,-1.8478 -5.88579,-1.4504 -5.58354,0.3555 -6.64198,0.1755 -6.39857,-1.0884 0.40022,-2.0782 6.56382,-6.0848 9.36059,-6.0848 5.14205,0 6.84546,-1.5781 9.32737,-8.6412 1.32558,-3.7723 3.89677,-10.1417 5.71375,-14.1541 3.81334,-8.421 3.55122,-8.8319 -4.95603,-7.769 -6.5189,0.8145 -11.3996,3.6472 -12.27183,7.1225 -0.3617,1.4411 -0.41645,5.2801 -0.12167,8.531 0.29478,3.2509 0.16317,5.9108 -0.29248,5.9108 -0.45564,0 -2.21297,-1.165 -3.90517,-2.5889 -2.5318,-2.1304 -3.07672,-3.329 -3.07672,-6.7679 0,-6.291 3.58554,-10.8227 11.73031,-14.8257 l 6.74994,-3.3175 h 22.83059 22.83059 l -3.82072,3.2479 c -5.21447,4.4328 -8.85769,5.2909 -17.42275,4.104 -3.90969,-0.5418 -7.68796,-0.7627 -8.39616,-0.491 -1.02914,0.3949 -10.5018,26.3568 -10.5018,28.7824 0,0.3525 4.4967,0.9628 9.99267,1.3562 5.91643,0.4234 9.75208,1.1045 9.40286,1.6695 -1.10215,1.7833 -5.87539,3.0592 -13.82704,3.6959 l -7.9315,0.6351 -3.88872,13.5 c -2.1388,7.425 -4.40683,17.2125 -5.04008,21.75 -1.29926,9.3098 -2.68009,10.369 -7.38477,5.6643 z" />
    <path
       style="fill:#f8fafc;fill-opacity:1;fill-rule:nonzero;stroke:none;stroke-width:0.245669;stroke-dasharray:none;stroke-dashoffset:0;stroke-opacity:1"
       d="m 539.65066,487.14193 v -18.5 h 200 200 v 18.5 18.5 h -200 -200 z m 33.25,12.4474 c 3.28902,-0.9134 3.75,-1.4174 3.75,-4.1002 v -3.0587 l -2.90121,3.1057 c -7.1682,7.6736 -17.55109,-0.3386 -15.57742,-12.0207 0.9294,-5.5011 3.48418,-7.8735 8.47863,-7.8735 3.8832,0 8,2.573 8,5 0,0.55 0.48575,1 1.07945,1 1.37358,0 0.12633,-6.2014 -1.45508,-7.2347 -1.85442,-1.2117 -9.46176,-0.8601 -12.95318,0.5987 -1.79552,0.7502 -4.52947,2.8673 -6.07546,4.7046 -2.44465,2.9053 -2.75043,3.9696 -2.34696,8.1686 0.92151,9.5903 9.51591,14.6221 20.00123,11.7102 z m 152.75,-10.6187 c 0,-9.4569 0.31399,-12.0182 1.65498,-13.5 1.57901,-1.7448 1.45711,-1.8287 -2.65498,-1.8287 -4.1548,0 -4.24872,0.068 -2.60876,1.8798 1.3422,1.4831 1.63871,3.4146 1.40499,9.1522 l -0.29623,7.2724 -7.82136,-9.1522 c -7.03832,-8.2359 -8.16461,-9.1522 -11.25,-9.1522 -3.51588,0 -4.60561,1.3344 -1.92864,2.3616 1.20132,0.461 1.5,2.6627 1.5,11.0573 0,8.9276 -0.25947,10.6328 -1.75,11.501 -1.34661,0.7843 -0.59745,0.9995 3.25,0.9337 2.75,-0.047 4.22723,-0.2886 3.28274,-0.5366 -2.1494,-0.5646 -2.99433,-4.8812 -2.59195,-13.2419 l 0.30921,-6.4249 9,10.6499 c 4.95,5.8574 9.3375,10.6611 9.75,10.6748 0.4125,0.014 0.75,-5.227 0.75,-11.6462 z m 30.99266,10.0575 c 7.43658,-2.9755 10.74641,-10.9191 7.44683,-17.8725 -4.45317,-9.3843 -16.53474,-10.1314 -23.82038,-1.4729 -4.79688,5.7008 -2.48378,15.6498 4.46569,19.2076 4.23786,2.1696 6.75701,2.1988 11.90786,0.1378 z m -9.28541,-2.4019 c -4.86462,-3.8265 -5.9538,-12.9067 -2.22991,-18.5901 1.1369,-1.7351 2.48881,-2.3942 4.91085,-2.3942 9.0742,0 13.69333,12.5415 7.51295,20.3985 -2.50628,3.1862 -6.58969,3.4209 -10.19389,0.5858 z m 43.26652,-4.7343 c 0.0557,-2.6534 1.78263,-1.0402 4.0355,3.7698 1.29313,2.7609 2.68575,4.6734 3.09472,4.25 0.40897,-0.4234 2.52192,-5.465 4.69546,-11.2036 2.17353,-5.7386 4.95506,-11.4761 6.18117,-12.75 l 2.2293,-2.3162 h -4.10496 c -2.25773,0 -4.10496,0.45 -4.10496,1 0,0.55 0.45,1 1,1 0.55,0 1,0.5176 1,1.1502 0,1.6829 -5.40295,15.8262 -6.05074,15.8389 -0.3029,0.01 -1.47539,-1.9016 -2.60554,-4.2391 -2.01166,-4.1608 -2.0167,-4.3393 -0.24027,-8.5 0.998,-2.3375 2.28299,-4.25 2.85554,-4.25 0.57255,0 1.04101,-0.45 1.04101,-1 0,-0.55 -1.37656,-1 -3.05902,-1 -1.83327,0 -2.80533,0.4105 -2.4259,1.0244 0.34821,0.5634 0.32006,2.4497 -0.0626,4.1917 l -0.69567,3.1674 -1.45369,-2.7744 c -0.79952,-1.526 -1.20894,-3.4123 -0.90981,-4.1918 0.41304,-1.0764 -0.41082,-1.4173 -3.42474,-1.4173 -2.18274,0 -3.96861,0.45 -3.96861,1 0,0.55 0.36726,1 0.81613,1 0.44887,0 2.05111,2.5875 3.56053,5.75 2.54887,5.3403 2.64466,5.9866 1.34455,9.0705 l -1.39985,3.3205 -3.79136,-8.5088 c -2.08525,-4.6798 -3.52168,-9.2115 -3.19207,-10.0705 0.48999,-1.2769 -0.24405,-1.5617 -4.02431,-1.5617 -4.39122,0 -4.54162,0.091 -2.99251,1.8023 0.8971,0.9913 4.18211,7.1788 7.30002,13.75 l 5.66894,11.9477 1.82874,-4 c 1.00581,-2.2 1.84054,-4.5625 1.85496,-5.25 z m 86.52623,-16.6785 c 1.86946,-1.4095 1.67364,-1.5079 -3,-1.5079 -4.42914,0 -4.79518,0.1553 -3.206,1.3606 1.50315,1.14 1.74633,2.6076 1.5,9.0519 l -0.294,7.6912 -7.43716,-9.0837 c -7.18677,-8.7778 -7.57394,-9.0819 -11.5,-9.0312 -3.98467,0.051 -4.01955,0.083 -1.81284,1.622 2.07095,1.4446 2.24878,2.3357 2.23468,11.1976 -0.0157,9.8749 -0.38511,11.4095 -2.98468,12.3991 -0.825,0.314 0.75,0.5928 3.5,0.6195 3.85927,0.038 4.60074,-0.184 3.25,-0.9707 -1.46189,-0.8515 -1.75,-2.5036 -1.75,-10.0348 v -9.0156 l 9.25,10.7659 9.25,10.7658 0.5,-12.1609 c 0.43798,-10.6525 0.74807,-12.348 2.5,-13.6688 z m -275.75,23.7392 c -1.39475,-0.3645 -1.75,-1.556 -1.75,-5.869 0,-4.2874 0.63625,-6.4457 3.06244,-10.3888 1.68434,-2.7374 4.27184,-5.8799 5.75,-6.9833 l 2.68756,-2.0063 -4.75,-0.032 c -4.40815,-0.029 -6.38875,1.2348 -3.5,2.2341 0.91212,0.3155 0.65966,1.4808 -0.93398,4.3113 -1.20119,2.1334 -2.55119,3.9978 -3,4.1432 -0.44881,0.1453 -2.02713,-1.6305 -3.50736,-3.9463 -1.97729,-3.0933 -2.40911,-4.5505 -1.62756,-5.4922 0.84238,-1.015 -0.0413,-1.2817 -4.24575,-1.2817 h -5.30954 l 2.58609,2.75 c 8.7104,9.2624 11.55388,20.3262 5.7881,22.5211 -0.825,0.314 1.2,0.5543 4.5,0.5339 3.3,-0.02 5.2125,-0.2428 4.25,-0.4944 z m 26,0 c -1.3955,-0.3647 -1.75,-1.5567 -1.75,-5.884 0,-2.9847 0.1987,-5.4267 0.44155,-5.4267 0.24285,0 2.51916,2.7 5.05845,6 4.37202,5.6818 4.8392,5.9966 8.80844,5.9366 3.29506,-0.05 3.74526,-0.2439 2.1049,-0.9074 -1.14767,-0.4641 -4.50351,-4.1041 -7.45742,-8.0887 l -5.37076,-7.2447 4.33602,-3.8479 c 2.38482,-2.1164 5.17816,-3.8479 6.20743,-3.8479 1.02926,0 1.87139,-0.45 1.87139,-1 0,-0.55 -2.3051,-1 -5.12245,-1 -4.5298,0 -4.97249,0.1807 -3.82637,1.5616 1.10414,1.3305 0.67803,2.1798 -2.87756,5.7353 l -4.17362,4.1737 v -4.3751 c 0,-2.994 0.55242,-4.7944 1.75,-5.7035 1.51681,-1.1514 0.9505,-1.3284 -4.25,-1.3284 -5.20051,0 -5.76682,0.177 -4.25,1.3284 1.48121,1.1244 1.75,3.0282 1.75,12.3949 0,9.6986 -0.21631,11.123 -1.75,11.5238 -0.9625,0.2515 0.95,0.4573 4.25,0.4573 3.3,0 5.2125,-0.2058 4.25,-0.4573 z m 44.25,-2.9567 v -3.6461 l -2.34759,2.5331 c -2.39515,2.5844 -7.78066,4.4158 -9.62801,3.2741 -0.59477,-0.3676 -1.0244,-5.0708 -1.0244,-11.2139 0,-8.9042 0.2773,-10.7912 1.75,-11.9092 1.52674,-1.1589 1.08023,-1.3325 -3.5,-1.3602 -2.8875,-0.017 -5.25,0.4182 -5.25,0.9682 0,0.55 0.45,1 1,1 0.60832,0 1,4.4755 1,11.4267 0,10.0416 -0.21212,11.4821 -1.75,11.884 -0.9625,0.2515 3.0875,0.5095 9,0.5733 l 10.75,0.116 z m 18.25,2.6148 c -2.12724,-0.855 -2.25,-1.4611 -2.25,-11.1079 0,-8.0911 0.34262,-10.582 1.65498,-12.0322 1.58417,-1.7505 1.4237,-1.8274 -3.75,-1.7969 -4.70915,0.028 -5.17969,0.2028 -3.65498,1.3602 1.47287,1.1181 1.75,3.0055 1.75,11.9185 0,9.0308 -0.25767,10.7402 -1.75,11.6094 -1.32491,0.7717 -0.29254,1.0113 4.25,0.9863 4.59134,-0.025 5.47175,-0.2453 3.75,-0.9374 z m 131.5,-0.049 c -2.15461,-1.2549 -2.23421,-4.0829 -0.22432,-7.9696 1.24318,-2.404 2.16586,-2.9503 4.98315,-2.9503 3.15682,0 3.68386,0.4468 6.06085,5.1375 2.08385,4.1123 2.33665,5.3066 1.26684,5.9847 -0.82259,0.5214 0.77837,0.8414 4.16348,0.8321 4.26588,-0.012 5.10196,-0.2468 3.72609,-1.0478 -0.97565,-0.5679 -4.49551,-6.4619 -7.82192,-13.0976 -3.3264,-6.6358 -6.37925,-11.6699 -6.78411,-11.187 -0.40486,0.483 -2.92299,5.743 -5.59585,11.6889 -2.67285,5.9459 -5.78437,11.4584 -6.91448,12.25 -1.89349,1.3263 -1.62528,1.4368 3.41776,1.4088 4.20489,-0.023 5.06715,-0.2665 3.72251,-1.0497 z m 2.25,-13.7288 c 0,-0.4448 0.58499,-1.6089 1.29998,-2.5867 1.21131,-1.6565 1.38037,-1.6014 2.47856,0.8089 1.09512,2.4035 1.00306,2.5867 -1.29998,2.5867 -1.36321,0 -2.47856,-0.364 -2.47856,-0.8089 z m 72.75,14.1196 c -1.5337,-0.4008 -1.75,-1.8252 -1.75,-11.5238 0,-9.3667 0.26878,-11.2704 1.75,-12.3948 1.51681,-1.1515 0.9505,-1.3285 -4.25,-1.3285 -5.20051,0 -5.76682,0.177 -4.25,1.3285 1.48121,1.1244 1.75,3.0281 1.75,12.3948 0,9.6986 -0.21631,11.123 -1.75,11.5238 -0.9625,0.2515 0.95,0.4573 4.25,0.4573 3.3,0 5.2125,-0.2058 4.25,-0.4573 z m 30.24503,-3.0607 -0.005,-3.75 -2.2625,2.8273 c -1.62163,2.0264 -3.24897,2.8762 -5.74503,3 l -3.48253,0.1727 -0.30226,-5.25 -0.30226,-5.25 h 3.50257 c 2.28081,0 3.85811,0.6104 4.52185,1.75 0.80708,1.3857 1.02561,0.8503 1.04969,-2.5714 0.0276,-3.9286 -0.11245,-4.1786 -1.54102,-2.75 -0.86429,0.8643 -2.91394,1.5714 -4.55479,1.5714 -2.93521,0 -2.97845,-0.077 -2.67857,-4.75 0.27874,-4.3441 0.53868,-4.7769 3.04211,-5.0652 1.96772,-0.2266 3.46647,0.4716 5.33075,2.4832 l 2.59342,2.7983 -0.33075,-3.4831 -0.33074,-3.4832 -9,-0.244 c -7.73493,-0.2096 -8.75402,-0.054 -7.25,1.1103 1.47125,1.1385 1.75,3.041 1.75,11.9443 0,9.0308 -0.25767,10.7401 -1.75,11.6093 -1.27661,0.7436 0.88747,1.0275 8,1.0497 l 9.75,0.03 z"
       id="path9" />
  </g>
</svg>
