<?xml version="1.0" encoding="UTF-8" standalone="no"?>
<!-- Created with Inkscape (http://www.inkscape.org/) -->

<svg
   width="180.60922mm"
   height="56.524826mm"
   viewBox="0 0 180.60922 56.524826"
   version="1.1"
   id="svg1"
   sodipodi:docname="nav-bar2.svg"
   inkscape:version="1.3.2 (091e20e, 2023-11-25, custom)"
   xmlns:inkscape="http://www.inkscape.org/namespaces/inkscape"
   xmlns:sodipodi="http://sodipodi.sourceforge.net/DTD/sodipodi-0.dtd"
   xmlns:xlink="http://www.w3.org/1999/xlink"
   xmlns="http://www.w3.org/2000/svg"
   xmlns:svg="http://www.w3.org/2000/svg">
  <sodipodi:namedview
     id="namedview1"
     pagecolor="#ffffff"
     bordercolor="#000000"
     borderopacity="0.25"
     inkscape:showpageshadow="2"
     inkscape:pageopacity="0.0"
     inkscape:pagecheckerboard="0"
     inkscape:deskcolor="#d1d1d1"
     inkscape:document-units="mm"
     inkscape:zoom="1.0242632"
     inkscape:cx="412.00347"
     inkscape:cy="66.87734"
     inkscape:window-width="1920"
     inkscape:window-height="1009"
     inkscape:window-x="-8"
     inkscape:window-y="-8"
     inkscape:window-maximized="1"
     inkscape:current-layer="layer1" />
  <defs
     id="defs1">
    <linearGradient
       inkscape:collect="always"
       xlink:href="#linearGradient17"
       id="linearGradient18"
       x1="732.96252"
       y1="146.84538"
       x2="738.1604"
       y2="358.5921"
       gradientUnits="userSpaceOnUse"
       gradientTransform="matrix(0.26458333,0,0,0.26458333,-142.56674,27.104655)" />
    <linearGradient
       id="linearGradient17"
       inkscape:collect="always">
      <stop
         style="stop-color:#26a65b;stop-opacity:1;"
         offset="0"
         id="stop17" />
      <stop
         style="stop-color:#262626;stop-opacity:1;"
         offset="1"
         id="stop18" />
    </linearGradient>
  </defs>
  <g
     inkscape:label="Warstwa 1"
     inkscape:groupmode="layer"
     id="layer1"
     transform="translate(-20.121293,-66.233146)">
    <path
       style="fill:url(#linearGradient18);fill-opacity:1;fill-rule:nonzero;stroke:none;stroke-width:0.0649999;stroke-dasharray:none;stroke-dashoffset:0;stroke-opacity:1"
       d="m 48.237699,122.5444 c -0.291042,-0.11615 -1.124479,-0.30184 -1.852083,-0.41264 l -1.322917,-0.20148 1.040786,-0.36732 c 2.280939,-0.80503 2.795672,-2.12133 2.795672,-7.14928 0,-3.43551 -0.01521,-3.52859 -0.6438,-3.94047 -0.476893,-0.31247 -0.974203,-0.37806 -1.918229,-0.25302 -2.45723,0.32552 -4.722823,0.97517 -5.683025,1.62957 -0.827934,0.56427 -1.261131,0.65892 -2.975464,0.64995 -1.779741,-0.009 -2.202289,0.0916 -3.7397,0.89297 -1.219954,0.63587 -2.062602,0.89669 -2.845372,0.88071 -0.611664,-0.0124 -1.342088,0.0233 -1.623163,0.0793 -0.342646,0.0684 -0.646967,-0.13544 -0.923526,-0.61865 -0.375909,-0.65677 -0.374044,-0.75908 0.02104,-1.15419 0.327154,-0.32715 0.378891,-0.62396 0.210878,-1.20978 -0.193209,-0.67368 -0.140584,-0.80748 0.398164,-1.01229 0.341439,-0.12983 0.702143,-0.36767 0.801568,-0.52854 0.273965,-0.44328 -0.375473,-1.06306 -1.113946,-1.06306 -0.393121,0 -0.96516,-0.33182 -1.430105,-0.82955 -0.759806,-0.81336 -0.808876,-0.82606 -2.517841,-0.65096 -1.928585,0.19759 -3.004976,-0.21418 -3.004976,-1.14953 0,-0.5342 1.386763,-1.16562 3.204821,-1.45926 0.525725,-0.0849 1.169257,-0.39019 1.43007,-0.67837 0.260813,-0.28821 0.805188,-0.52401 1.209726,-0.52401 1.197663,0 2.092883,-0.45566 2.092883,-1.06529 0,-0.79203 -1.595644,-1.38626 -3.851341,-1.43428 -2.853928,-0.0607 -4.350742,-1.142977 -4.350742,-3.145689 0,-0.786791 -0.116057,-0.958003 -0.814414,-1.201473 -1.042993,-0.36359 -0.946801,-0.918395 0.339619,-1.958816 0.964144,-0.77978 1.005948,-0.787903 2.519177,-0.490194 1.772674,0.348748 6.449854,0.115994 6.743539,-0.335571 0.103928,-0.159808 0.896397,-0.290565 1.761043,-0.290565 1.363292,0 1.707157,-0.109008 2.589162,-0.820764 0.559395,-0.451432 1.055129,-1.07651 1.10163,-1.389063 0.07541,-0.506888 -0.03892,-0.568086 -1.058334,-0.566446 -0.628584,0 -2.154912,0.245427 -3.391839,0.543137 -1.236927,0.297709 -2.903802,0.520223 -3.704167,0.494479 -0.800364,-0.02566 -1.801156,0.04506 -2.223979,0.157348 -0.597868,0.15875 -0.847849,0.09599 -1.124479,-0.282337 -0.470651,-0.643652 -0.45484,-2.35491 0.02543,-2.753505 0.209629,-0.17398 0.322484,-0.469199 0.250785,-0.656043 -0.07583,-0.197617 0.202028,-0.477395 0.664287,-0.668869 0.437057,-0.181036 0.97483,-0.604147 1.195051,-0.940244 0.220221,-0.336101 0.821338,-0.750012 1.335815,-0.919806 0.612878,-0.202268 0.935413,-0.473943 0.935413,-0.787916 0,-0.34041 0.274929,-0.530778 0.949249,-0.65728 1.915668,-0.359384 4.077835,-1.928421 4.077835,-2.959201 0,-0.198657 0.04439,-0.361196 0.09866,-0.361196 0.386606,0 2.82177,1.25249 3.443557,1.771142 0.918022,0.765749 1.755084,0.70616 2.182998,-0.1554 0.461422,-0.929026 0.237034,-1.21653 -1.575472,-2.018625 -0.899912,-0.398241 -1.837058,-0.89889 -2.082549,-1.112555 -0.245491,-0.213664 -0.568312,-0.313105 -0.717381,-0.220974 -0.149066,0.09213 -1.111861,-0.03544 -2.139545,-0.283486 -1.633694,-0.394313 -1.886881,-0.5368 -2.014651,-1.133774 -0.08038,-0.375533 -0.367483,-1.245552 -0.638019,-1.933376 l -0.491884,-1.250593 0.707136,-0.338923 c 0.388927,-0.186407 0.751173,-0.576141 0.804992,-0.866074 0.19604,-1.056114 0.599641,-1.261049 2.149922,-1.091666 0.804574,0.08791 1.770996,0.231312 2.147604,0.318678 0.556827,0.129172 0.85339,-0.02551 1.5875,-0.82799 1.754455,-1.917853 1.879055,-2.017458 2.364857,-1.890419 0.311666,0.0815 0.732462,-0.147947 1.168204,-0.636995 0.374589,-0.420412 0.951317,-0.764386 1.281618,-0.764386 0.330298,0 0.835395,-0.162423 1.122436,-0.360939 0.287041,-0.198517 1.437542,-0.418304 2.556666,-0.488419 2.036427,-0.127584 3.581863,-0.741494 3.24376,-1.288558 -0.183872,-0.29751 1.42703,-0.199032 1.941071,0.118663 0.176562,0.10912 0.435599,0.127588 0.575641,0.04104 0.140041,-0.08655 0.808127,-0.168473 1.484635,-0.182052 1.2647,-0.0254 1.897787,0.412917 1.422905,0.985113 -0.728863,0.878226 1.407446,0.881388 2.221241,0.0033 0.58601,-0.632315 0.616802,-0.636178 1.905595,-0.238993 0.720479,0.222038 1.458791,0.447987 1.640692,0.502105 0.588923,0.175215 0.351581,0.528603 -0.529167,0.787895 -1.11846,0.329271 -1.161952,1.159584 -0.08771,1.674452 0.58528,0.280517 0.887156,0.2983 1.24718,0.07346 0.767355,-0.479221 2.839672,-0.0755 3.311896,0.645203 0.93373,1.425053 0.16132,2.14649 -2.354697,2.199288 -1.043699,0.02191 -1.256771,0.110598 -1.256771,0.523145 0,0.789532 0.53345,1.028562 2.513542,1.12627 1.619376,0.07991 1.976606,0.0086 2.843126,-0.567388 0.54507,-0.362326 1.05009,-0.838724 1.12227,-1.058659 0.0722,-0.219935 0.69777,-0.536959 1.39021,-0.704496 0.69244,-0.167539 1.46869,-0.387802 1.725,-0.489474 0.357,-0.141615 0.42745,-0.08434 0.30113,0.244846 -0.21136,0.550783 0.33819,1.216713 1.00407,1.216713 0.28369,0 1.03878,-0.306491 1.67799,-0.681091 1.33749,-0.783817 2.35801,-0.775464 2.39869,0.01963 0.0149,0.291042 0.11693,0.811922 0.22676,1.157513 0.22436,0.706035 -0.15409,1.080796 -1.09811,1.087395 -0.31884,0.0021 -0.65394,0.12418 -0.74468,0.271002 -0.345,0.558213 0.18981,1.249294 1.72232,2.225617 0.87254,0.555868 1.58643,1.096957 1.58643,1.20242 0,0.10546 -0.23344,0.403016 -0.51877,0.661231 -0.4063,0.367694 -0.76883,0.431985 -1.67209,0.296532 -0.80587,-0.120846 -1.38688,-0.05115 -1.92862,0.231354 -0.42642,0.222366 -0.91355,0.405035 -1.08252,0.405932 -0.35453,0.0019 -1.67716,1.49847 -1.67716,1.89775 0,0.14741 -0.26789,0.487011 -0.59532,0.754668 -0.79786,0.652233 -0.45205,0.925801 1.61683,1.279065 2.08398,0.355843 2.41807,0.624044 2.41807,1.941208 0,0.923359 0.061,1.02439 0.52917,0.875813 0.30355,-0.09634 0.52916,-0.04754 0.52916,0.114464 0,0.630637 0.69504,0.219176 1.20015,-0.710491 0.42377,-0.779941 0.67605,-0.975833 1.18248,-0.91817 1.97296,0.224647 5.81946,2.955335 5.81946,4.131318 0,0.310944 0.23812,1.216829 0.52916,2.013093 0.71259,1.949556 0.68002,2.193978 -0.42126,3.160924 -0.93255,0.81878 -0.99434,0.832988 -3.28483,0.755015 -1.28392,-0.04371 -2.42407,0.01005 -2.53365,0.119354 -0.10959,0.109352 -0.0336,0.508291 0.16877,0.886486 0.33158,0.619548 0.31633,0.726334 -0.15394,1.078177 -0.47804,0.357637 -0.42125,0.37592 0.67476,0.216958 0.99411,-0.144198 1.277,-0.08488 1.67088,0.350362 0.30875,0.341153 0.37585,0.584702 0.19234,0.698103 -0.4618,0.285406 -0.32035,0.864896 0.24735,1.013356 0.72853,0.190517 0.66337,0.881537 -0.13229,1.402877 -1.38449,0.90718 -0.31244,1.22187 1.71979,0.50485 1.5946,-0.56261 1.9206,-0.50845 2.94843,0.48977 1.23346,1.1979 1.979783,3.8747 1.34699,4.83114 -0.3815,0.57663 -1.9065,1.16136 -3.02551,1.16007 -0.62569,0 -1.70473,0.20195 -2.39786,0.4504 -1.25628,0.45026 -1.26469,0.44944 -2.67227,-0.26326 -1.66686,-0.84402 -1.92113,-0.86434 -2.88264,-0.2303 -0.75889,0.50041 -0.71634,0.83823 0.10558,0.83823 0.47368,0 1.28561,1.21904 1.28561,1.93021 0,0.67789 -0.91166,1.19447 -2.43948,1.38229 -0.83239,0.10234 -1.65064,0.3514 -1.81833,0.55346 -0.41387,0.49869 -1.93309,0.46323 -2.96256,-0.0691 -0.46424,-0.24006 -1.49605,-0.44842 -2.29289,-0.46302 -1.33005,-0.0243 -1.47785,0.0331 -1.80305,0.70109 -0.22588,0.46397 -0.5647,0.72824 -0.93511,0.72935 -0.31948,0 -0.938057,0.23828 -1.37462,0.52742 -0.137879,1.06974 -4.672393,1.09195 -6.09709,-0.44635 -0.249369,-0.26926 -0.636211,-0.34176 -1.06835,-0.23331 -0.607743,0.15253 -0.64148,0.1189 -0.37682,-0.37563 0.394174,-0.73652 0.10908,-1.09842 -0.704437,-0.89424 -0.423796,0.10636 -0.751337,0.0433 -0.883124,-0.16989 -0.308699,-0.49948 -1.02281,-0.11739 -1.352364,0.72359 -0.318403,0.8125 -0.113073,5.74458 0.282471,6.78492 0.276898,0.72829 1.750225,1.49005 2.881898,1.49005 0.442362,0 0.877879,0.11906 0.967816,0.26458 0.09908,0.16034 -0.28576,0.268 -0.976574,0.27324 -0.627052,0.005 -1.794936,0.239 -2.595301,0.52051 -1.492284,0.52494 -3.68931,0.65993 -4.630208,0.28448 z m 8.011292,-12.39853 c 0.588518,-0.77121 0.275431,-1.24085 -0.884168,-1.32623 -1.132274,-0.0834 -2.623426,0.75695 -2.42134,1.36457 0.253738,0.76287 2.715882,0.73435 3.305508,-0.0383 z m -11.898767,-1.67894 c 0.682903,-0.16457 1.415984,-0.46223 1.629066,-0.66146 0.331769,-0.31017 0.210711,-0.36222 -0.842672,-0.36222 -1.511223,0 -2.587461,0.38246 -2.587461,0.91951 0,0.48268 0.185926,0.49342 1.801067,0.10417 z"
       id="path14"
       sodipodi:nodetypes="cscsssccccccscscssccsscsscscsssscscscccssssssssssssssssscssssssssssssscsssssssssssssssssssscsssssscsssssssssssscsssscscsssccccssssccsccsssssssssscccccccscsss" />
    <path
       id="path13"
       style="fill:#825e5e;fill-opacity:1;fill-rule:nonzero;stroke:#368445;stroke-width:0.0649999;stroke-dasharray:none;stroke-dashoffset:0;stroke-opacity:1"
       d="m 131.76633,83.796485 c -0.4065,-1.280768 2.41012,-2.484305 3.04364,-1.300559 0.20572,0.384387 0.14188,0.661326 -0.27448,1.190625 -0.73117,0.929534 -2.48691,0.999252 -2.76916,0.109934 z M 93.011441,98.389678 c -0.45755,-0.457568 -0.54729,-0.776098 -0.42718,-1.516245 0.18044,-1.11193 1.55022,-4.014916 3.0254,-6.41175 l 1.05847,-1.719791 -2.07584,-0.07665 c -1.71561,-0.06334 -2.04947,-0.145389 -1.92383,-0.47281 0.29065,-0.757423 1.73503,-1.26545 3.53324,-1.242775 l 1.72554,0.0217 1.24516,-1.76059 c 3.350969,-4.738159 7.293199,-9.036659 8.287649,-9.036659 0.32093,0 0.84869,0.214736 1.1728,0.477176 l 0.58928,0.477176 -0.6554,1.308762 c -1.5578,3.110759 -3.33115,9.904677 -3.55735,13.628608 -0.16897,2.781823 0.0831,3.687443 1.02642,3.687443 1.51139,0 5.1316,-6.020169 5.03544,-8.373611 -0.0555,-1.35808 0.81679,-2.690892 1.42873,-2.183051 0.25328,0.210212 0.32298,0.588222 0.21478,1.164961 -0.14379,0.766498 -0.0636,0.913394 0.7843,1.437455 2.13268,1.318074 2.47047,2.646309 1.35002,5.308414 -0.70833,1.682902 -0.8249,2.513592 -0.39042,2.782112 0.60004,0.37084 1.95065,-0.25701 3.34526,-1.55511 1.34473,-1.251661 1.52868,-1.564425 2.1154,-3.596716 0.56867,-1.969743 0.59555,-2.252186 0.23358,-2.454751 -0.6326,-0.354039 -0.50088,-0.937974 0.18628,-0.825844 0.52334,0.08538 0.7673,-0.257836 2.01801,-2.839032 1.41909,-2.928726 3.12917,-5.161333 3.78764,-4.944957 0.84929,0.279056 0.50523,1.552866 -1.22357,4.529985 -0.95579,1.645972 -1.73781,3.084115 -1.73781,3.195902 0,0.111786 1.13119,0.161977 2.51375,0.111548 1.88358,-0.06869 2.51369,-0.0087 2.51354,0.239051 -2.6e-4,0.424709 0.27621,0.370946 -2.88715,0.561578 l -2.75466,0.166026 -0.60351,1.792208 c -0.75227,2.233957 -1.00555,3.865562 -0.76798,4.947202 0.63544,2.893167 5.30917,0.48861 6.7297,-3.462307 1.06395,-2.959153 2.33061,-4.732311 3.38053,-4.732311 0.343,0 0.68573,0.161819 0.76163,0.359595 0.0759,0.197776 -0.52316,1.62597 -1.33122,3.173756 -2.01194,3.853757 -2.00185,5.462477 0.0343,5.462477 0.66373,0 1.15026,-0.27001 2.06375,-1.14527 0.67067,-0.64262 1.19527,-1.38796 1.19527,-1.698202 0,-0.340069 0.3359,-0.760545 0.87251,-1.0922 1.49492,-0.923899 3.6254,-3.943667 3.6254,-5.138632 0,-0.742129 0.6147,-1.509024 1.20953,-1.509024 0.26681,0 0.37797,0.322659 0.37797,1.097121 0,0.603409 0.35719,2.212181 0.79375,3.575024 0.43657,1.362868 0.79375,3.01535 0.79375,3.672173 v 1.19425 l 0.72761,-0.38005 c 0.78731,-0.41121 1.93611,-1.563707 2.40393,-2.411643 0.43106,-0.781288 0.37137,0.03686 -0.0637,0.873019 -0.51312,0.986204 -1.44118,1.805194 -2.58918,2.284854 -0.53313,0.22276 -1.03881,0.62394 -1.12375,0.89157 -0.25278,0.79645 -2.04933,1.639197 -3.49198,1.638117 -1.57011,-0.003 -2.7864,-0.68054 -3.25831,-1.819807 -0.40451,-0.97658 -0.56066,-1.00944 -1.22872,-0.25852 -0.66917,0.75215 -2.42014,1.537087 -3.44491,1.544317 -1.07702,0.008 -2.10676,-0.824577 -2.3162,-1.871797 l -0.16709,-0.83542 -1.16026,1.0695 c -1.57854,1.455017 -2.66266,1.967067 -4.21444,1.990487 -1.11541,0.0169 -1.40493,-0.0889 -1.93701,-0.707497 -0.4035,-0.46911 -0.62558,-1.06053 -0.62558,-1.666 v -0.93869 l -0.9334,0.81955 c -2.03832,1.78966 -4.81305,2.475007 -5.74117,1.41808 -0.79427,-0.90453 -0.78588,-1.56763 0.0461,-3.645475 0.99963,-2.496476 1.02047,-3.276494 0.10985,-4.113609 -0.5671,-0.521335 -0.72396,-0.567108 -0.83776,-0.244554 -0.6002,1.70135 -3.1997,6.322718 -4.01524,7.138238 -2.06218,2.062187 -4.10416,1.994647 -4.92818,-0.16301 -0.35786,-0.93702 -0.41498,-1.66909 -0.28484,-3.650315 0.18543,-2.82284 0.38424,-2.589504 -2.50083,-2.935076 l -1.490649,-0.178567 -2.52397,5.074018 -2.52396,5.074015 z m 45.825879,-2.150635 0.57263,-0.57264 -1.30024,-0.57954 c -0.71512,-0.31877 -1.52704,-0.835 -1.80426,-1.14718 -0.72996,-0.822006 -0.95118,-0.705087 -0.95118,0.50276 0,2.027 2.14582,3.133827 3.48305,1.7966 z m 0.75029,-2.46255 c 0,-1.087124 -0.80586,-4.905617 -1.033,-4.894822 -0.0867,0.0042 -0.54737,0.629206 -1.02372,1.389063 -0.47635,0.759857 -1.00713,1.582949 -1.1795,1.829091 -0.36519,0.521467 0.17986,1.277329 1.51643,2.102908 1.24709,0.77033 1.71979,0.65318 1.71979,-0.42624 z M 104.00397,84.90546 c 0.48147,-1.67349 1.12429,-3.672205 1.42848,-4.44156 0.7949,-2.01049 0.67416,-2.198556 -0.54579,-0.850107 -1.53716,1.699075 -5.324951,7.44228 -5.069134,7.686014 0.251334,0.239474 2.432284,0.748215 2.953574,0.688975 0.21794,-0.02487 0.69914,-1.228222 1.23287,-3.083322 z m 57.04331,11.875793 c -1.87222,-2.00959 0.0253,-9.003688 4.46466,-16.456207 1.97133,-3.309355 3.48825,-4.948846 4.17693,-4.514426 1.30929,0.82587 1.02142,3.447838 -0.78311,7.132584 -1.53739,3.139281 -2.94025,5.213271 -4.75629,7.031726 -1.36382,1.36562 -1.51634,1.635601 -1.68451,2.981563 -0.58172,4.655947 3.005,3.98526 5.13752,-0.960676 0.26968,-0.625475 0.81993,-1.464654 1.22277,-1.864836 0.69871,-0.694108 0.89303,-0.770626 2.11548,-0.832935 0.3339,-0.01693 0.5599,-0.243099 0.61245,-0.612643 0.0458,-0.32213 0.421,-0.947208 0.83376,-1.389062 0.62206,-0.66593 0.95538,-0.803381 1.94803,-0.803381 0.99085,0 1.29667,0.125598 1.77174,0.727604 0.75243,0.953506 0.60707,2.337144 -0.49238,4.686618 -0.91749,1.960641 -0.76903,2.282291 0.8056,1.745451 1.24279,-0.423699 1.60499,-0.767102 2.44428,-2.317295 0.76643,-1.415601 2.08275,-2.350638 2.87901,-2.045071 0.28421,0.109061 0.55161,-0.189971 0.92529,-1.034759 0.60727,-1.372817 1.18961,-1.762548 2.63361,-1.762548 2.19835,0 2.67915,2.168155 1.18761,5.355511 -0.60879,1.300956 -0.731,1.782892 -0.47684,1.880422 0.5475,0.2101 2.24858,-0.2667 2.84088,-0.796292 1.35458,-1.21113 2.87842,-4.675849 2.66816,-6.066499 -0.0912,-0.603356 0.0445,-1.012905 0.51833,-1.563741 0.83927,-0.975704 1.35377,-0.689848 1.13105,0.628412 -0.15572,0.921703 -0.10209,1.014704 1.05557,1.830705 2.08145,1.467141 2.22942,2.418424 0.93043,5.981595 -0.49901,1.36879 -0.52162,1.60927 -0.18316,1.94773 0.80815,0.80814 3.41528,-0.83593 5.14535,-3.244718 0.38868,-0.541179 0.57276,-0.655691 0.57847,-0.359833 0.0117,0.602562 -2.13948,3.464901 -3.13865,4.176371 -1.20551,0.858407 -2.34065,1.117087 -3.5146,0.801 -1.71084,-0.4607 -1.9675,-1.75551 -0.87899,-4.434367 0.8824,-2.171621 0.86977,-3.288189 -0.0453,-4.008014 -0.38873,-0.305779 -0.78695,-0.463259 -0.88493,-0.349938 -0.098,0.113321 -0.45401,0.962766 -0.79116,1.887696 -0.39955,1.096063 -1.04875,2.155613 -1.86432,3.042708 l -1.2513,1.361045 -1.7622,0.0257 c -1.64186,0.0238 -1.82904,0.0897 -2.74086,0.96303 -1.26436,1.21103 -2.43575,1.789427 -3.62398,1.789427 -1.30424,0 -2.24946,-1.019697 -2.24946,-2.426677 v -1.0265 l -0.81654,0.42225 c -0.4691,0.2426 -1.29834,0.39264 -1.94883,0.35264 -0.98174,-0.0604 -1.28651,0.0644 -2.29231,0.93837 -2.17056,1.886107 -4.25268,2.300307 -5.24187,1.04277 -0.3016,-0.38343 -0.54837,-0.9939 -0.54837,-1.3566 0,-0.63785 -0.0391,-0.62343 -1.19265,0.43987 -1.87947,1.732417 -3.83723,2.156727 -4.86434,1.05426 z m 10.84714,-1.75717 1.06549,-0.99388 -0.65889,-1.188936 c -0.3624,-0.653918 -0.74047,-1.634385 -0.84017,-2.178818 -0.0997,-0.544433 -0.28954,-0.922946 -0.42187,-0.841163 -0.5118,0.316309 -1.59061,2.860252 -1.73696,4.095937 -0.27124,2.29018 0.82295,2.75738 2.5924,1.10686 z m 10.56288,0.3271 c 1.34527,-0.9925 1.42697,-1.29447 0.69601,-2.572623 -0.35424,-0.619442 -0.7276,-1.600967 -0.8297,-2.181225 -0.17747,-1.008618 -0.20333,-1.031875 -0.58835,-0.529166 -0.77135,1.007163 -1.6664,3.325839 -1.6664,4.316914 0,1.72887 0.87491,2.08275 2.38844,0.9661 z m -7.66908,-4.161869 c 0.85316,-1.803426 0.99883,-3.12928 0.39854,-3.62749 -0.93001,-0.771843 -2.26165,0.741653 -2.26165,2.57048 0,1.19962 0.46316,2.710656 0.83087,2.710656 0.13746,0 0.60197,-0.744141 1.03224,-1.653646 z m 10.85863,0.231934 c 0.60396,-1.330034 0.66695,-3.408177 0.11713,-3.864504 -0.31961,-0.265245 -0.53523,-0.178964 -1.19063,0.476435 -0.94178,0.941784 -1.07436,2.365084 -0.35985,3.863419 0.51682,1.083786 0.76231,1.002374 1.43335,-0.47535 z m -20.71869,-3.803809 c 2.28604,-3.10814 4.96556,-8.750379 4.41248,-9.291293 -0.48135,-0.4708 -3.60077,4.835657 -5.25547,8.940032 -1.10461,2.739919 -0.95862,2.800747 0.84299,0.351261 z M 149.19818,98.24424 c -0.62065,-0.62063 -0.67124,-0.82624 -0.54523,-2.215907 0.11357,-1.25249 1.52826,-5.907327 2.44577,-8.047462 0.19853,-0.4631 0.0939,-0.488897 -1.55729,-0.383752 -1.47731,0.09406 -1.75735,0.04643 -1.69295,-0.287972 0.10589,-0.549857 1.73668,-1.609937 2.47665,-1.609937 1.36051,0 1.8112,-0.417539 2.46787,-2.286317 0.35073,-0.998088 1.03102,-2.683325 1.51176,-3.744939 1.00895,-2.228057 0.9396,-2.336774 -1.31128,-2.055548 -1.72479,0.215503 -3.01614,0.964988 -3.24692,1.884494 -0.0957,0.381292 -0.11019,1.397027 -0.0322,2.257161 0.078,0.860134 0.0432,1.563899 -0.0774,1.563899 -0.12055,0 -0.58551,-0.30824 -1.03324,-0.68498 -0.66987,-0.563668 -0.81405,-0.880798 -0.81405,-1.790673 0,-1.664494 0.94868,-2.863506 3.10365,-3.922633 l 1.78592,-0.877756 h 6.04059 6.04059 l -1.01089,0.859341 c -1.37967,1.172845 -2.3436,1.399884 -4.60977,1.08585 -1.03444,-0.143352 -2.03411,-0.201798 -2.22149,-0.129911 -0.27229,0.104484 -2.7786,6.97357 -2.7786,7.615343 0,0.09327 1.18975,0.254741 2.64389,0.358828 1.56539,0.112025 2.58024,0.292233 2.48784,0.441722 -0.29161,0.471832 -1.55453,0.809414 -3.6584,0.977874 l -2.09854,0.168037 -1.02889,3.571875 c -0.56589,1.964531 -1.16598,4.554136 -1.33352,5.754686 -0.34377,2.463215 -0.70911,2.743465 -1.95389,1.498677 z" />
    <path
       style="fill:#f8fafc;fill-opacity:1;fill-rule:nonzero;stroke:none;stroke-width:0.0649999;stroke-dasharray:none;stroke-dashoffset:0;stroke-opacity:1"
       d="m 92.617528,105.83127 v -4.89479 h 52.916652 52.91667 v 4.89479 4.8948 H 145.53418 92.617528 Z m 8.797382,3.29338 c 0.87022,-0.24167 0.99219,-0.37502 0.99219,-1.08485 v -0.80928 l -0.76761,0.82172 c -1.896582,2.03031 -4.643722,-0.0896 -4.121522,-3.18048 0.24591,-1.4555 0.92186,-2.08319 2.24331,-2.08319 1.027422,0 2.116662,0.68077 2.116662,1.32291 0,0.14552 0.12852,0.26459 0.2856,0.26459 0.36343,0 0.0334,-1.64079 -0.38499,-1.91419 -0.49065,-0.32059 -2.503412,-0.22756 -3.427192,0.15841 -0.47506,0.19849 -1.19842,0.75864 -1.60746,1.24476 -0.64681,0.76869 -0.72772,1.05029 -0.62097,2.16127 0.24382,2.53744 2.51775,3.86877 5.291982,3.09833 z m 40.41511,-2.80953 c 0,-2.50214 0.0831,-3.17982 0.43788,-3.57188 0.41778,-0.46164 0.38553,-0.48384 -0.70247,-0.48384 -1.09929,0 -1.12414,0.018 -0.69023,0.49736 0.35512,0.39241 0.43358,0.90345 0.37174,2.42152 l -0.0784,1.92416 -2.0694,-2.42152 c -1.86222,-2.17908 -2.16022,-2.42152 -2.97656,-2.42152 -0.93025,0 -1.21857,0.35306 -0.51029,0.62484 0.31785,0.12197 0.39687,0.70451 0.39687,2.92558 0,2.36209 -0.0686,2.81326 -0.46302,3.04297 -0.35629,0.20751 -0.15807,0.26445 0.8599,0.24704 0.7276,-0.0124 1.11845,-0.0764 0.86856,-0.14197 -0.5687,-0.14939 -0.79225,-1.29149 -0.68579,-3.50359 l 0.0818,-1.69992 2.38125,2.81778 c 1.30969,1.54977 2.47055,2.82075 2.57969,2.82438 0.10914,0.004 0.19844,-1.38298 0.19844,-3.08139 z m 8.20014,2.66104 c 1.96759,-0.78726 2.84332,-2.88901 1.97031,-4.72876 -1.17824,-2.48293 -4.37482,-2.6806 -6.30248,-0.38971 -1.26917,1.50834 -0.65717,4.14068 1.18155,5.08201 1.12127,0.57404 1.78779,0.58177 3.15062,0.0365 z m -2.45677,-0.6355 c -1.28709,-1.01243 -1.57527,-3.4149 -0.58999,-4.91863 0.3008,-0.45908 0.6585,-0.63346 1.29933,-0.63346 2.40088,0 3.62302,3.31827 1.9878,5.3971 -0.66312,0.84301 -1.74352,0.90511 -2.69714,0.15499 z m 11.4476,-1.25262 c 0.0147,-0.70204 0.47166,-0.27521 1.06773,0.99743 0.34214,0.73049 0.71061,1.2365 0.81881,1.12448 0.10821,-0.11202 0.66726,-1.44595 1.24234,-2.96429 0.57508,-1.51833 1.31103,-3.03638 1.63544,-3.37343 l 0.58983,-0.61283 h -1.0861 c -0.59736,0 -1.08611,0.11906 -1.08611,0.26458 0,0.14552 0.11907,0.26459 0.26459,0.26459 0.14552,0 0.26458,0.13694 0.26458,0.30432 0,0.44527 -1.42953,4.18735 -1.60092,4.19071 -0.0802,0.003 -0.39037,-0.50313 -0.68939,-1.1216 -0.53225,-1.10088 -0.53358,-1.1481 -0.0636,-2.24896 0.26406,-0.61846 0.60404,-1.12447 0.75553,-1.12447 0.15149,0 0.27543,-0.11907 0.27543,-0.26459 0,-0.14552 -0.36421,-0.26458 -0.80936,-0.26458 -0.48505,0 -0.74224,0.10861 -0.64185,0.27104 0.0921,0.14906 0.0847,0.64815 -0.0166,1.10905 l -0.18406,0.83804 -0.38462,-0.73406 c -0.21154,-0.40375 -0.31987,-0.90283 -0.24072,-1.10908 0.10928,-0.28479 -0.1087,-0.37499 -0.90613,-0.37499 -0.57752,0 -1.05003,0.11906 -1.05003,0.26458 0,0.14552 0.0972,0.26459 0.21593,0.26459 0.11877,0 0.54269,0.68461 0.94206,1.52135 0.67439,1.41295 0.69973,1.58395 0.35575,2.3999 l -0.37038,0.87855 -1.00313,-2.25128 c -0.55172,-1.2382 -0.93178,-2.43721 -0.84457,-2.66449 0.12964,-0.33785 -0.0646,-0.4132 -1.06476,-0.4132 -1.16185,0 -1.20164,0.0241 -0.79177,0.47686 0.23736,0.26228 1.10651,1.89939 1.93146,3.63802 l 1.49991,3.16116 0.48385,-1.05833 c 0.26612,-0.58209 0.48698,-1.20716 0.49079,-1.38907 z m 22.8934,-4.41285 c 0.49463,-0.37293 0.44282,-0.39896 -0.79375,-0.39896 -1.17187,0 -1.26872,0.0411 -0.84825,0.35999 0.39771,0.30162 0.46205,0.68993 0.39687,2.39498 l -0.0778,2.03496 -1.96775,-2.40339 c -1.9015,-2.32246 -2.00394,-2.40292 -3.04271,-2.38951 -1.05428,0.0135 -1.06351,0.022 -0.47965,0.42916 0.54794,0.38221 0.59499,0.61798 0.59126,2.9627 -0.004,2.61273 -0.10189,3.01876 -0.7897,3.28059 -0.21828,0.0831 0.19844,0.15685 0.92605,0.16391 1.02109,0.01 1.21728,-0.0487 0.85989,-0.25683 -0.38679,-0.22529 -0.46302,-0.66241 -0.46302,-2.65504 v -2.38538 l 2.4474,2.84848 2.44739,2.84845 0.13229,-3.21757 c 0.11589,-2.81848 0.19793,-3.26708 0.66146,-3.61654 z m -72.95885,6.281 c -0.36903,-0.0964 -0.46302,-0.41169 -0.46302,-1.55284 0,-1.13438 0.16834,-1.70543 0.81027,-2.7487 0.44565,-0.72427 1.13026,-1.55573 1.52135,-1.84767 l 0.71109,-0.53083 -1.25677,-0.008 c -1.16633,-0.008 -1.69036,0.32671 -0.92605,0.59111 0.24134,0.0835 0.17454,0.39179 -0.24711,1.14069 -0.31782,0.56447 -0.675,1.05776 -0.79375,1.09623 -0.11875,0.0384 -0.53635,-0.43141 -0.92799,-1.04413 -0.52316,-0.81843 -0.63741,-1.20399 -0.43063,-1.45314 0.22288,-0.26856 -0.0109,-0.33912 -1.12335,-0.33912 h -1.40482 l 0.68424,0.7276 c 2.30463,2.45068 3.05696,5.37798 1.53144,5.95871 -0.21829,0.0831 0.3175,0.14666 1.19062,0.14126 0.87313,-0.005 1.37914,-0.0642 1.12448,-0.13081 z m 6.87917,0 c -0.36923,-0.0965 -0.46302,-0.41188 -0.46302,-1.55681 0,-0.7897 0.0526,-1.43581 0.11682,-1.43581 0.0643,0 0.66653,0.71437 1.33838,1.5875 1.15677,1.50331 1.28038,1.5866 2.33057,1.57072 0.87182,-0.0132 0.99093,-0.0645 0.55692,-0.24008 -0.30365,-0.12279 -1.19155,-1.08588 -1.97311,-2.14014 l -1.42101,-1.91682 1.14724,-1.01809 c 0.63098,-0.55997 1.37005,-1.01809 1.64238,-1.01809 0.27232,0 0.49514,-0.11907 0.49514,-0.26459 0,-0.14552 -0.60989,-0.26458 -1.35532,-0.26458 -1.19851,0 -1.31563,0.0478 -1.01239,0.41317 0.29214,0.35203 0.1794,0.57674 -0.76135,1.51747 l -1.10427,1.10429 v -1.15758 c 0,-0.79216 0.14616,-1.26852 0.46302,-1.50905 0.40132,-0.30464 0.25148,-0.35147 -1.12448,-0.35147 -1.37597,0 -1.52581,0.0468 -1.12448,0.35147 0.3919,0.2975 0.46302,0.80121 0.46302,3.27948 0,2.56609 -0.0572,2.94296 -0.46302,3.04901 -0.25466,0.0665 0.25135,0.12099 1.12448,0.12099 0.87312,0 1.37914,-0.0545 1.12448,-0.12099 z m 11.70781,-0.7823 v -0.96469 l -0.62113,0.67021 c -0.63372,0.68379 -2.05864,1.16835 -2.54742,0.86628 -0.15736,-0.0973 -0.27104,-1.34165 -0.27104,-2.96702 0,-2.3559 0.0734,-2.85517 0.46303,-3.15097 0.40395,-0.30663 0.28581,-0.35256 -0.92605,-0.35989 -0.76398,-0.005 -1.38906,0.11065 -1.38906,0.25617 0,0.14552 0.11906,0.26459 0.26458,0.26459 0.16096,0 0.26459,1.18414 0.26459,3.02331 0,2.65684 -0.0561,3.03797 -0.46302,3.14431 -0.25466,0.0665 0.8169,0.1348 2.38125,0.15168 l 2.84427,0.0307 z m 4.82864,0.69184 c -0.56283,-0.22622 -0.59531,-0.38659 -0.59531,-2.93897 0,-2.14077 0.0907,-2.79982 0.43788,-3.18352 0.41915,-0.46315 0.37669,-0.4835 -0.99219,-0.47543 -1.24596,0.007 -1.37046,0.0537 -0.96704,0.35989 0.38969,0.29583 0.46302,0.7952 0.46302,3.15344 0,2.38939 -0.0682,2.84167 -0.46302,3.07165 -0.35055,0.20418 -0.0774,0.26757 1.12448,0.26096 1.21479,-0.007 1.44773,-0.0649 0.99218,-0.24802 z m 34.79271,-0.013 c -0.57007,-0.33202 -0.59113,-1.08026 -0.0594,-2.10862 0.32893,-0.63606 0.57305,-0.7806 1.31846,-0.7806 0.83524,0 0.97469,0.11822 1.6036,1.3593 0.55135,1.08804 0.61824,1.40403 0.33518,1.58345 -0.21764,0.13795 0.20595,0.22262 1.10159,0.22016 1.12868,-0.003 1.34989,-0.0653 0.98586,-0.27723 -0.25814,-0.15026 -1.18943,-1.70971 -2.06955,-3.46541 -0.88011,-1.75572 -1.68784,-3.08766 -1.79496,-2.95989 -0.10712,0.12779 -0.77337,1.5195 -1.48057,3.09269 -0.70719,1.57318 -1.53045,3.0317 -1.82945,3.24114 -0.50099,0.35092 -0.43003,0.38015 0.90428,0.37275 1.11254,-0.006 1.34068,-0.0705 0.98491,-0.27774 z m 0.59531,-3.63241 c 0,-0.11769 0.15478,-0.42569 0.34396,-0.6844 0.32049,-0.43828 0.36522,-0.4237 0.65578,0.21402 0.28975,0.63593 0.2654,0.6844 -0.34395,0.6844 -0.36068,0 -0.65579,-0.0963 -0.65579,-0.21402 z m 19.24844,3.73581 c -0.40579,-0.10604 -0.46302,-0.48292 -0.46302,-3.049 0,-2.47828 0.0711,-2.98196 0.46302,-3.27946 0.40132,-0.30467 0.25149,-0.3515 -1.12448,-0.3515 -1.37597,0 -1.5258,0.0468 -1.12448,0.3515 0.39191,0.2975 0.46302,0.80118 0.46302,3.27946 0,2.56608 -0.0572,2.94296 -0.46302,3.049 -0.25466,0.0665 0.25136,0.121 1.12448,0.121 0.87313,0 1.37914,-0.0545 1.12448,-0.121 z m 8.00233,-0.80981 -0.001,-0.99219 -0.59862,0.74806 c -0.42906,0.53615 -0.85962,0.761 -1.52004,0.79375 l -0.92142,0.0457 -0.08,-1.38906 -0.08,-1.38906 h 0.92672 c 0.60346,0 1.02079,0.1615 1.1964,0.46302 0.21354,0.36663 0.27136,0.22498 0.27773,-0.68035 0.007,-1.03944 -0.0297,-1.10559 -0.40772,-0.7276 -0.22868,0.22868 -0.77098,0.41576 -1.20513,0.41576 -0.7766,0 -0.78804,-0.0204 -0.7087,-1.25677 0.0738,-1.14937 0.14252,-1.26389 0.80489,-1.34017 0.52063,-0.06 0.91717,0.12478 1.41043,0.65702 l 0.68617,0.74038 -0.0875,-0.92157 -0.0875,-0.9216 -2.38125,-0.0645 c -2.04653,-0.0555 -2.31616,-0.0143 -1.91822,0.29376 0.38926,0.30123 0.46302,0.8046 0.46302,3.16027 0,2.38939 -0.0682,2.84165 -0.46302,3.07162 -0.33777,0.19675 0.23481,0.27186 2.11666,0.27774 l 2.57969,0.008 z"
       id="path9" />
  </g>
</svg>
