<!DOCTYPE svg PUBLIC "-//W3C//DTD SVG 1.1//EN" "http://www.w3.org/Graphics/SVG/1.1/DTD/svg11.dtd">
<!-- Uploaded to: SVG Repo, www.svgrepo.com, Transformed by: SVG Repo Mixer Tools -->
<svg version="1.1" id="Layer_1" xmlns="http://www.w3.org/2000/svg" xmlns:xlink="http://www.w3.org/1999/xlink" viewBox="0 0 512.001 512.001" xml:space="preserve" width="800px" height="800px" fill="#000000">
<g id="SVGRepo_bgCarrier" stroke-width="0"/>
<g id="SVGRepo_tracerCarrier" stroke-linecap="round" stroke-linejoin="round"/>
<g id="SVGRepo_iconCarrier"> <g> <rect x="144.019" y="150.231" transform="matrix(-0.7071 -0.7071 0.7071 -0.7071 85.844 628.6119)" style="fill:#825e5e;" width="58.186" height="292.592"/> <rect x="144.446" y="232.201" transform="matrix(-0.7071 -0.7071 0.7071 -0.7071 28.1345 768.1268)" style="fill:#825e5e;" width="57.411" height="292.072"/> <rect x="144.519" y="-12.294" transform="matrix(-0.7071 -0.7071 0.7071 -0.7071 201.1101 350.7046)" style="fill:#825e5e;" width="57.339" height="291.99"/> <rect x="144.447" y="68.818" transform="matrix(-0.7071 -0.7071 0.7071 -0.7071 143.5865 489.1823)" style="fill:#825e5e;" width="57.319" height="292.072"/> <rect x="330.515" y="199.839" transform="matrix(0.7071 -0.7071 0.7071 0.7071 -118.8928 347.0822)" style="fill:#825e5e;" width="58.008" height="234.437"/> <rect x="330.322" y="281.339" transform="matrix(0.7071 -0.7071 0.7071 0.7071 -176.3276 370.4228)" style="fill:#825e5e;" width="57.309" height="233.437"/> <rect x="330.414" y="36.787" transform="matrix(0.7071 -0.7071 0.7071 0.7071 -3.5247 298.9597)" style="fill:#825e5e;" width="57.401" height="233.896"/> <rect x="330.71" y="117.75" transform="matrix(0.7071 -0.7071 0.7071 0.7071 -61.1142 323.0972)" style="fill:#825e5e;" width="57.492" height="235.14"/> </g> <g> <path style="fill:#ffffff;" d="M263.368,2.987c-3.983-3.983-10.441-3.983-14.425,0L42.477,209.455 c-1.912,1.912-2.987,4.507-2.987,7.212s1.075,5.3,2.987,7.212l33.332,33.331l-33.435,33.435c-3.983,3.983-3.983,10.441,0,14.425 l33.317,33.317L41.876,372.2c-3.983,3.983-3.983,10.441,0,14.425l33.933,33.933l-33.435,33.435c-3.983,3.983-3.983,10.441,0,14.425 l40.596,40.596c1.992,1.991,4.602,2.987,7.212,2.987c2.61,0,5.221-0.996,7.212-2.987l158.79-158.79l157.852,157.852 c1.912,1.912,4.507,2.987,7.212,2.987c2.705,0,5.299-1.075,7.212-2.987l40.526-40.526c3.983-3.983,3.983-10.441,0-14.424 l-32.675-32.675l33.806-33.806c3.983-3.983,3.983-10.441,0-14.425l-33.435-33.435l33.443-33.443c3.983-3.983,3.983-10.441,0-14.425 l-34.195-34.195l33.374-33.375c3.983-3.983,3.983-10.441,0-14.424L263.368,2.987z M448.489,298.129l-26.231,26.231L270.412,172.514 l26.231-26.231L448.489,298.129z M270.538,91.33L296.7,65.168l150.968,150.968l-26.162,26.163L270.538,91.33z M90.234,242.786 l-26.12-26.119L256.156,24.623l26.12,26.12L90.234,242.786z M256.115,105.753l26.105,26.105L90.115,323.962l-26.105-26.105 L256.115,105.753z M90.234,406.134l-26.721-26.721l192.475-192.475l26.721,26.721L90.234,406.134z M256.115,269.102l26.171,26.171 L90.182,487.377l-26.171-26.171L256.115,269.102z M447.35,460.337l-26.102,26.102l-150.639-150.64l26.102-26.102L447.35,460.337z M270.538,254.677l26.594-26.594l151.348,151.348l-26.594,26.594L270.538,254.677z"/> <path style="fill:#ffffff;" d="M415.036,223.436c1.992,1.992,4.602,2.987,7.212,2.987c2.61,0,5.221-0.995,7.212-2.987 c3.983-3.983,3.983-10.441,0-14.425l-48.446-48.446c-3.983-3.983-10.441-3.983-14.425,0c-3.983,3.983-3.983,10.441,0,14.425 L415.036,223.436z"/> <path style="fill:#ffffff;" d="M344.661,153.061c1.992,1.992,4.602,2.987,7.212,2.987c2.61,0,5.221-0.995,7.212-2.987 c3.983-3.983,3.983-10.441,0-14.425l-4.781-4.781c-3.983-3.983-10.441-3.983-14.425,0c-3.983,3.983-3.983,10.441,0,14.425 L344.661,153.061z"/> </g> </g>
</svg>