<?xml version="1.0" encoding="utf-8"?>
<!-- Generator: Adobe Illustrator 19.0.0, SVG Export Plug-In . SVG Version: 6.00 Build 0)  -->
<svg version="1.1" id="layer" xmlns="http://www.w3.org/2000/svg" xmlns:xlink="http://www.w3.org/1999/xlink" x="0px" y="0px"
	 viewBox="-153 -46 652 652" style="enable-background:new -153 -46 652 652;" xml:space="preserve">
<style type="text/css">
	.st0{fill:#46B93A;}
</style>
<g>
	<path class="st0" d="M-128.7,313.7c-1.4,0-2.6-1.2-2.6-2.6v-72c0-1.4,1.1-2.6,2.6-2.6c0,0,0,0,0,0h72c1.4,0,2.6,1.2,2.6,2.6
		c0,0,0,0,0,0v10.3c0,1.4-1.1,2.6-2.6,2.6c0,0,0,0,0,0h-51.4c-1.4,0-2.6,1.2-2.6,2.6v10.3c0,1.4,1.2,2.6,2.6,2.6h46.3
		c1.4,0,2.6,1.1,2.6,2.6c0,0,0,0,0,0v10.3c0,1.4-1.1,2.6-2.6,2.6c0,0,0,0,0,0h-46.3c-1.4,0-2.6,1.2-2.6,2.6l0,0v25.7
		c0,1.4-1.2,2.6-2.6,2.6C-113.3,313.7-127.3,313.7-128.7,313.7z"/>
	<path class="st0" d="M394.2,236.4c-1.4,0-2.6,1.2-2.6,2.6v72c0,1.4,1.2,2.6,2.6,2.6h72c1.4,0,2.6-1.2,2.6-2.6v-10.3
		c0-1.4-1.1-2.6-2.6-2.6h-51.4c-1.4,0-2.6-1.1-2.6-2.6c0,0,0,0,0,0c0-1.4-0.1-56.8-0.1-56.8s0.2-2.3-2.5-2.3H394.2z"/>
	<path class="st0" d="M-49,239.2c0-1.4,1.1-2.6,2.6-2.6c0,0,0,0,0,0h77.1c1.4,0,2.6,1.2,2.6,2.6c0,0,0,0,0,0v10.3
		c0,1.4-1.1,2.6-2.6,2.6c0,0,0,0,0,0h-56.6c-1.4,0-2.6,1.2-2.6,2.6v10.3c0,1.4,1.2,2.6,2.6,2.6l0,0h51.4c1.4,0,2.6,1.1,2.6,2.6
		c0,0,0,0,0,0v10.3c0,1.4-1.1,2.6-2.6,2.6c0,0,0,0,0,0h-51.4c-1.4,0-2.6,1.2-2.6,2.6c0,0,0,0,0,0v10.3c0,1.4,1.2,2.6,2.6,2.6
		c0,0,0,0,0,0h56.6c1.4,0,2.6,1.2,2.6,2.6v10.3c0,1.4-1.2,2.6-2.6,2.6h-77.1c-1.4,0-2.6-1.2-2.6-2.6V239.2z"/>
	<path class="st0" d="M38.5,267.5c0,8.5,6.9,15.4,15.4,15.4H95c2.8,0,5.1,2.3,5.1,5.1c0,0,0,0,0,0v5.1c0,2.8-2.3,5.1-5.1,5.1
		c0,0,0,0,0,0H61.6c-1.4,0-2.6-1.1-2.6-2.6c0,0,0,0,0,0c0-1.4-1.1-2.6-2.6-2.6c0,0,0,0,0,0H41c-1.4,0-2.6,1.1-2.6,2.6c0,0,0,0,0,0
		v2.6c0,8.5,6.9,15.4,15.4,15.4h51.4c8.5,0,15.4-6.9,15.4-15.4v-15.4c0-8.5-6.9-15.4-15.4-15.4H64.2c-2.8,0-5.1-2.3-5.1-5.1
		c0,0,0,0,0,0v-5.1c0-2.8,2.3-5.1,5.1-5.1h33.4c1.4,0,2.6,1.2,2.6,2.6c0,1.4,1.2,2.6,2.6,2.6h15.4c1.4,0,2.6-1.2,2.6-2.6V252
		c0-8.5-6.9-15.4-15.4-15.4H53.9c-8.5,0-15.4,6.9-15.4,15.4L38.5,267.5L38.5,267.5z"/>
	<path class="st0" d="M125.9,239.2c0-1.4,1.2-2.6,2.6-2.6h77.1c1.4,0,2.6,1.2,2.6,2.6c0,0,0,0,0,0v10.3c0,1.4-1.1,2.6-2.6,2.6
		c0,0,0,0,0,0h-25.7c-1.4,0-2.6,1.2-2.6,2.6v56.6c0,1.4-1.1,2.6-2.6,2.6c0,0,0,0,0,0h-15.4c-1.4,0-2.6-1.2-2.6-2.6v-56.6
		c0-1.4-1.2-2.6-2.6-2.6h-25.7c-1.4,0-2.6-1.1-2.6-2.6c0,0,0,0,0,0L125.9,239.2L125.9,239.2L125.9,239.2z"/>
	<path class="st0" d="M228.8,313.7c-8.5,0-15.4-6.9-15.4-15.4V252c0-8.5,6.9-15.4,15.4-15.4h51.4c8.5,0,15.4,6.9,15.4,15.4v46.3
		c0,8.5-6.9,15.4-15.4,15.4H228.8z M239,298.3h30.9c2.8,0,5.1-2.3,5.1-5.1v-36c0-2.8-2.3-5.1-5.1-5.1H239c-2.8,0-5.1,2.3-5.1,5.1v36
		C233.9,296,236.2,298.3,239,298.3z"/>
	<path class="st0" d="M318.1,314c-8.5,0-15.4-6.9-15.4-15.4v-46.3c0-8.5,6.9-15.4,15.4-15.4h51.4c8.5,0,15.4,6.9,15.4,15.4v46.3
		c0,8.5-6.9,15.4-15.4,15.4H318.1L318.1,314z M328.4,298.5h30.9c2.8,0,5.1-2.3,5.1-5.1c0,0,0,0,0,0v-36c0-2.8-2.3-5.1-5.1-5.1
		c0,0,0,0,0,0h-30.9c-2.8,0-5.1,2.3-5.1,5.1c0,0,0,0,0,0v36C323.3,296.2,325.6,298.5,328.4,298.5
		C328.4,298.5,328.4,298.5,328.4,298.5L328.4,298.5z"/>
</g>
</svg>
